<?xml version="1.0" standalone="no"?>
<!DOCTYPE svg PUBLIC "-//W3C//DTD SVG 20010904//EN"
 "http://www.w3.org/TR/2001/REC-SVG-20010904/DTD/svg10.dtd">
<svg version="1.0" xmlns="http://www.w3.org/2000/svg"
 width="680.000000pt" height="1000.000000pt" viewBox="0 0 680.000000 1000.000000"
 preserveAspectRatio="xMidYMid meet">
<metadata>
Created by potrace 1.16, written by Peter Selinger 2001-2019
</metadata>
<g transform="translate(0.000000,1000.000000) scale(0.100000,-0.100000)"
fill="#000000" stroke="none">
<path d="M0 5000 l0 -5000 719 0 c677 0 720 1 724 18 16 56 59 239 72 307 10
46 20 171 25 295 9 241 5 224 110 475 84 199 93 209 313 310 20 10 49 17 63
17 15 0 28 7 31 17 3 9 13 24 21 34 8 9 13 20 10 23 -3 3 -15 -8 -27 -24 -17
-24 -28 -30 -64 -30 -42 -1 -43 -1 -60 47 -9 27 -17 58 -17 70 0 11 -5 21 -11
21 -7 0 -10 12 -7 29 3 18 0 27 -7 25 -6 -3 -11 6 -12 18 -2 26 -64 172 -75
176 -4 2 -8 10 -8 17 0 8 -14 36 -31 64 -17 27 -35 71 -40 96 -5 26 -19 59
-32 74 -12 15 -29 47 -36 72 -22 73 -24 76 -29 50 -2 -13 6 -49 17 -81 12 -32
25 -77 30 -101 28 -137 43 -173 88 -216 25 -24 48 -43 52 -43 8 0 34 -91 27
-98 -3 -2 -26 15 -52 39 -25 24 -61 58 -80 75 -29 27 -34 39 -34 77 0 68 -18
147 -45 199 -44 85 -50 134 -24 235 32 129 34 132 71 91 l30 -33 -8 40 c-4 22
-7 52 -6 68 1 15 -3 27 -8 27 -6 0 -10 5 -10 10 0 25 20 5 45 -45 16 -30 30
-55 32 -55 3 0 3 17 1 37 -5 59 15 51 38 -13 25 -72 32 -85 104 -194 45 -70
61 -105 78 -174 23 -95 52 -140 124 -198 53 -42 147 -98 164 -98 7 0 16 -4 19
-10 3 -5 21 -17 40 -26 19 -9 35 -22 35 -29 0 -6 -17 -24 -37 -38 -21 -15 -33
-27 -27 -27 6 0 28 14 49 30 21 17 40 30 42 30 10 0 106 -53 161 -89 33 -23
66 -41 72 -41 17 0 43 -71 31 -83 -31 -31 -167 -114 -175 -107 -5 6 -3 16 5
27 13 16 12 17 -4 4 -10 -8 -16 -19 -14 -24 2 -6 -7 -20 -19 -32 -12 -12 -29
-48 -38 -80 -10 -31 -26 -74 -37 -94 -24 -45 -24 -54 0 -41 16 8 29 2 75 -35
30 -25 61 -57 68 -72 17 -35 43 -44 33 -12 -4 13 -15 36 -26 51 -15 21 -16 26
-4 22 27 -11 16 11 -15 29 -30 18 -41 12 -18 -11 7 -7 9 -12 6 -12 -10 0 -88
73 -88 82 0 21 41 96 56 102 8 3 28 6 43 6 15 0 31 3 34 7 4 3 22 8 41 10 l34
3 -11 -35 c-8 -27 -13 -32 -24 -24 -10 9 -13 7 -13 -10 0 -11 6 -21 13 -21 8
0 12 -14 12 -39 0 -30 -4 -41 -17 -44 -10 -3 -17 -13 -17 -24 1 -16 2 -16 6 0
6 22 17 22 39 0 16 -17 17 -16 12 10 -4 20 0 30 12 37 10 5 21 6 25 2 5 -4 5
1 2 11 -4 10 -7 21 -7 23 0 2 -9 4 -20 4 -13 0 -20 7 -20 20 0 14 6 20 16 18
10 -2 19 3 21 10 3 6 0 12 -6 12 -6 0 -11 14 -11 30 0 20 5 30 15 30 8 0 15
-9 15 -20 0 -30 32 -25 50 8 11 19 14 43 10 80 -5 46 -3 53 15 58 25 8 95 74
95 90 0 7 10 20 22 28 15 11 18 16 8 16 -9 0 -11 3 -5 8 6 4 27 42 49 85 27
55 42 77 53 73 8 -3 11 -1 8 4 -3 5 -1 18 4 27 6 10 11 14 11 8 1 -5 8 10 16
33 18 53 13 63 -11 25 -19 -30 -84 -102 -149 -167 -22 -21 -64 -50 -94 -64
-68 -31 -116 -26 -171 17 -41 32 -133 84 -276 154 -44 21 -81 43 -83 48 -2 5
-13 9 -24 9 -12 0 -19 3 -15 6 7 7 -17 34 -31 34 -5 0 -30 23 -55 52 -34 39
-49 68 -62 117 -10 36 -26 83 -36 103 -11 21 -19 44 -19 52 0 7 -7 16 -15 20
-8 3 -15 12 -15 21 0 8 -4 15 -8 15 -12 0 -36 52 -33 70 2 8 -1 12 -5 8 -8 -9
-47 44 -58 77 -5 17 -1 21 20 23 14 1 31 5 37 9 33 20 175 5 162 -17 -4 -7 36
-23 42 -17 1 2 -4 14 -10 27 -22 43 -84 56 -232 47 l-40 -2 -2 90 c-2 69 0 84
8 65 13 -33 39 -60 56 -60 11 0 12 9 7 36 -9 49 14 42 41 -12 11 -21 23 -41
26 -44 3 -3 9 -12 13 -20 3 -8 4 6 2 33 -2 30 0 47 8 47 6 0 5 4 -3 9 -9 6
-10 11 -2 15 6 4 11 27 11 52 0 48 29 164 40 164 9 0 20 -52 20 -95 0 -41 30
-135 43 -135 5 0 6 12 3 28 -12 46 -19 150 -12 177 8 31 26 23 26 -11 0 -40
60 -176 91 -209 l29 -30 1 75 c0 53 3 69 9 54 23 -58 30 -33 30 108 0 167 10
199 35 113 19 -63 41 -113 70 -160 23 -37 154 -159 162 -151 3 3 1 12 -6 19
-6 8 -22 44 -35 80 -20 54 -23 79 -19 129 l6 62 22 -50 c21 -48 121 -165 158
-185 13 -7 17 -6 17 6 0 9 -4 14 -8 11 -5 -3 -17 11 -26 31 -17 35 -17 36 1
22 10 -8 23 -19 28 -25 34 -36 125 -104 125 -93 0 8 -9 47 -20 88 -11 41 -19
91 -19 110 1 24 3 28 6 13 2 -12 8 -22 12 -22 5 0 14 -13 21 -30 7 -16 17 -27
23 -23 6 4 8 0 4 -11 -4 -9 -3 -15 2 -12 12 8 79 -43 129 -98 50 -57 53 -43
12 49 -16 37 -30 71 -30 77 0 5 29 -26 65 -71 36 -44 81 -93 100 -108 29 -24
35 -35 40 -83 15 -138 25 -149 46 -53 7 31 22 66 33 78 12 12 35 38 53 58 18
21 40 37 50 37 31 0 79 -36 96 -73 29 -60 22 -107 -23 -173 -23 -33 -51 -73
-63 -91 -29 -42 -60 -55 -111 -48 -47 7 -71 -10 -63 -42 4 -16 6 -15 12 5 4
12 11 22 15 22 10 0 16 -35 37 -232 9 -93 21 -168 25 -168 4 0 7 10 5 23 -2
19 2 22 28 20 94 -6 113 -20 196 -138 23 -33 70 -88 105 -122 75 -75 84 -96
53 -122 -23 -19 -19 -44 6 -35 39 15 22 -86 -21 -127 -18 -17 -30 -20 -58 -15
-21 4 -36 13 -36 21 0 7 -12 23 -27 35 -35 27 -73 84 -73 109 0 39 -32 37 -62
-3 -16 -22 -15 -24 38 -81 57 -62 62 -71 42 -78 -7 -2 -1 -4 13 -4 18 0 39
-13 62 -39 55 -59 51 -64 -53 -64 -58 0 -90 -4 -90 -11 0 -6 9 -13 20 -16 17
-5 20 -14 20 -64 0 -33 -3 -59 -7 -59 -5 0 -33 34 -63 75 l-55 75 -62 0 c-65
0 -79 -11 -42 -31 20 -10 21 -17 17 -126 -3 -96 -6 -116 -21 -124 -9 -6 -17
-17 -17 -24 0 -11 14 -15 54 -15 59 0 79 13 46 30 -36 19 -21 140 17 140 6 0
41 -38 78 -85 37 -47 73 -85 81 -85 11 0 14 30 16 143 l3 142 35 0 35 0 3
-120 c3 -112 1 -121 -19 -137 -31 -26 -13 -29 131 -26 116 3 125 4 129 23 2
11 8 31 13 44 9 24 9 24 53 -25 47 -52 56 -74 28 -74 -14 0 -14 -3 4 -22 11
-13 26 -39 33 -58 7 -19 25 -62 40 -95 15 -33 37 -81 49 -107 12 -27 23 -48
26 -48 3 0 18 27 35 59 16 33 34 62 38 65 5 3 56 -44 113 -103 57 -60 107
-107 111 -105 10 6 0 400 -11 421 -4 10 -19 52 -32 93 -13 41 -27 79 -31 84
-13 16 -9 36 6 36 8 0 26 -13 39 -30 14 -16 28 -30 30 -30 2 0 7 28 11 62 7
73 29 151 52 185 12 19 13 31 4 57 -6 18 -8 40 -5 49 4 8 -1 24 -11 35 -17 20
-48 97 -65 162 -25 93 -4 317 38 408 l18 40 -1 -169 -1 -170 59 -79 c56 -75
62 -80 96 -80 20 1 54 7 75 14 37 14 39 13 48 -11 5 -13 9 -34 9 -46 0 -12 4
-38 10 -57 12 -41 6 -48 -42 -52 -40 -2 -40 -16 1 -50 22 -19 28 -38 11 -38
-5 0 -10 4 -10 8 0 5 -16 17 -35 28 -29 15 -32 20 -18 26 13 5 9 7 -13 7 -17
1 -37 -6 -44 -14 -14 -16 -40 -20 -40 -6 0 5 -8 12 -17 15 -10 4 5 -15 32 -40
77 -71 131 -114 144 -114 19 0 17 -54 -10 -234 -25 -171 -24 -199 12 -297 44
-122 50 -151 39 -206 -13 -70 -36 -128 -49 -125 -21 4 -11 -52 31 -180 l43
-128 348 0 c386 0 365 -4 328 68 -12 24 -20 69 -24 131 -5 73 -10 98 -25 115
-29 31 -42 61 -42 95 0 17 -5 31 -10 31 -10 0 -7 -64 6 -110 7 -22 6 -24 -9
-11 -9 7 -17 21 -17 31 0 9 -18 35 -40 58 -38 39 -58 39 -23 0 15 -17 15 -21
3 -29 -14 -9 -100 -6 -180 6 -32 5 -38 1 -65 -37 -46 -64 -113 -101 -191 -106
-39 -3 -64 0 -64 6 0 5 9 54 20 108 25 121 17 176 -49 327 -27 62 -27 135 -2
304 24 158 40 231 51 238 11 7 84 -135 114 -221 l22 -62 12 51 c6 27 19 58 28
68 15 16 19 17 43 4 30 -15 92 -80 111 -115 18 -33 37 -21 78 50 l37 65 105
31 c127 37 194 70 240 119 l35 36 -21 36 c-25 44 -65 69 -90 58 -11 -4 -25 -7
-31 -6 -7 1 -13 -2 -13 -8 0 -11 -56 -41 -77 -41 -7 0 -25 -7 -38 -16 -14 -9
-44 -18 -67 -19 -24 -2 -50 -5 -58 -8 -99 -33 -104 -34 -96 -3 3 14 2 28 -4
31 -5 3 -10 22 -10 41 0 21 -5 34 -13 34 -15 0 -43 122 -32 139 3 6 2 11 -3
11 -10 0 -27 63 -25 89 1 7 -7 26 -16 42 l-18 29 -12 -83 c-11 -73 -15 -83
-39 -95 -49 -23 -75 -15 -128 41 -28 28 -58 63 -67 76 -9 14 -54 63 -100 111
-93 96 -97 105 -97 236 0 85 -12 114 -46 114 -23 0 -16 17 40 98 77 109 127
156 157 147 37 -11 89 -54 89 -73 0 -10 23 -40 51 -67 28 -28 62 -67 75 -87
31 -48 44 -48 44 0 0 26 -11 57 -33 94 -36 59 -48 107 -37 148 6 25 6 25 31
-12 29 -45 37 -47 41 -11 l3 28 23 -25 c14 -15 21 -32 18 -42 -4 -10 -9 -26
-12 -37 -4 -14 1 -20 27 -25 36 -7 56 5 61 37 2 14 9 20 18 18 8 -2 26 -4 38
-5 17 -1 28 -11 37 -33 16 -37 15 -37 49 -21 20 9 23 14 15 25 -6 7 -17 13
-24 13 -7 0 -29 14 -50 30 -33 26 -35 30 -16 30 18 0 11 11 -43 66 -61 60 -78
84 -58 84 4 0 16 -7 26 -15 11 -8 29 -15 40 -15 16 0 12 7 -21 37 -43 40 -83
116 -83 155 0 13 7 32 15 42 8 11 15 27 15 37 0 9 7 22 16 30 11 9 13 20 8 38
-4 14 -10 69 -13 121 l-6 95 -48 -115 c-26 -64 -52 -129 -57 -145 -18 -53 -1
126 21 237 12 56 32 127 45 157 13 29 24 55 24 57 0 13 -53 -34 -66 -57 -21
-42 -37 -37 -31 9 17 112 34 132 165 194 53 25 70 29 110 23 45 -6 85 -7 182
-6 61 2 143 -33 217 -91 72 -57 143 -138 143 -164 0 -23 36 -71 45 -62 4 3 1
16 -5 28 -15 28 5 60 60 96 38 26 40 26 160 17 75 -5 124 -5 127 1 4 5 -6 19
-20 31 -36 28 -19 45 43 45 73 0 220 -19 285 -37 128 -35 314 -128 391 -195
18 -16 38 -27 44 -23 7 4 10 664 10 2066 l0 2059 -26 41 c-29 46 -25 65 5 28
20 -24 20 -18 20 1409 l1 1432 -3400 0 -3400 0 0 -5000z m3374 4775 c43 -25
82 -45 86 -45 11 0 20 -27 19 -53 l0 -22 -9 21 c-9 23 -57 41 -72 26 -5 -5 -7
-65 -6 -133 l3 -124 38 -3 c30 -3 37 0 37 15 0 16 6 18 40 15 47 -5 55 -21 10
-20 -36 1 -53 -13 -48 -38 3 -17 14 -19 95 -19 50 0 95 -3 99 -7 4 -5 -35 -8
-87 -8 -52 0 -99 -4 -105 -8 -8 -5 -12 -62 -13 -169 l-2 -163 86 0 c77 0 102
8 75 25 -7 4 -10 55 -9 132 1 128 -3 142 -39 143 -7 0 -10 5 -7 10 4 6 80 10
195 10 115 0 191 -4 195 -10 7 -12 7 -12 -105 -10 -121 2 -120 2 -120 -86 l0
-74 86 0 c77 0 86 2 91 20 3 11 12 20 20 20 18 0 14 -101 -4 -108 -7 -2 -13 3
-13 12 0 25 -37 37 -108 34 l-67 -3 -5 -50 -5 -50 -45 -6 c-27 -4 9 -7 89 -7
l134 -2 -7 -31 c-3 -17 -6 -42 -6 -55 0 -19 -5 -24 -26 -24 -19 0 -28 -8 -40
-37 -9 -20 -17 -45 -19 -55 -2 -9 -10 -32 -19 -50 -8 -18 -17 -43 -21 -55 -3
-13 -14 -23 -23 -22 -11 0 -12 3 -4 6 23 9 12 18 -25 20 -21 1 -41 -3 -46 -10
-7 -9 -10 -9 -14 1 -4 10 -8 10 -19 1 -21 -18 -17 4 9 42 61 91 68 106 58 133
-15 39 -46 65 -70 59 -12 -3 -21 -12 -21 -19 0 -10 -16 -14 -63 -14 -73 0 -87
-10 -87 -61 0 -42 -75 -185 -83 -159 -13 43 -27 123 -32 185 -4 39 -8 84 -11
100 -2 17 -10 102 -19 190 -8 88 -17 168 -19 178 -3 10 1 20 7 23 9 3 12 48
12 156 l0 151 -40 13 c-22 6 -34 12 -27 13 6 1 12 12 12 25 0 30 17 76 27 76
5 0 43 -20 87 -45z m-1408 -79 c16 -18 68 -74 115 -124 61 -65 89 -103 98
-134 7 -24 19 -59 27 -78 7 -19 48 -140 90 -267 71 -214 79 -233 100 -233 12
0 35 -5 50 -10 15 -6 29 -8 32 -5 7 7 -18 106 -31 123 -5 7 -7 16 -3 19 4 4
10 2 14 -4 9 -14 115 -135 175 -199 26 -28 47 -54 47 -57 0 -13 -48 -7 -59 7
-8 10 -20 12 -39 7 -21 -6 -26 -13 -25 -32 3 -24 2 -24 -13 -4 -8 11 -17 30
-21 43 -7 29 6 27 -290 48 -105 8 -106 7 -79 -69 12 -32 12 -36 0 -26 -7 6
-16 19 -19 28 -4 13 -13 17 -31 13 -19 -3 -23 -9 -19 -26 5 -18 4 -17 -10 4
-29 47 -205 412 -205 424 0 22 -88 187 -103 192 -32 10 -7 24 44 24 52 0 61
-8 29 -27 -19 -12 -18 -15 15 -88 19 -41 32 -82 28 -90 -7 -19 92 -115 118
-115 22 0 59 -38 59 -61 0 -39 34 -61 125 -80 50 -10 98 -19 108 -19 20 0 23
25 5 37 -33 21 -160 207 -182 265 -36 96 -165 430 -177 458 -6 14 -15 33 -20
42 -9 18 -2 48 11 48 4 0 20 -15 36 -34z m699 14 c3 -5 -1 -10 -9 -10 -9 0
-16 5 -16 10 0 6 4 10 9 10 6 0 13 -4 16 -10z m131 -47 c-4 -10 -1 -13 13 -8
29 9 71 -15 71 -41 0 -12 -6 -24 -12 -27 -10 -4 -10 -7 0 -18 14 -16 17 -73 2
-64 -5 3 -10 15 -10 27 0 16 -5 19 -21 15 -15 -4 -19 -2 -15 9 3 8 -1 14 -9
14 -19 0 -29 -18 -18 -33 10 -13 9 -54 -1 -64 -13 -13 -28 14 -18 33 7 13 6
24 -4 39 -13 20 -12 23 18 38 18 9 41 18 52 21 15 5 16 9 6 21 -15 18 -50 20
-51 3 0 -10 -2 -10 -6 0 -2 6 -14 12 -24 12 -19 0 -19 1 -2 24 19 25 38 25 29
-1z m94 17 c0 -5 -7 -10 -16 -10 -8 0 -12 5 -9 10 3 6 10 10 16 10 5 0 9 -4 9
-10z m1140 0 c8 -5 12 -12 9 -15 -8 -8 -39 5 -39 16 0 11 11 11 30 -1z m225
-3 c0 -5 -43 -8 -95 -8 -120 0 -118 -1 -100 11 18 12 195 9 195 -3z m-1547
-35 c3 -17 -1 -20 -20 -17 -43 6 -68 17 -62 27 3 5 12 7 18 5 7 -3 19 -1 27 4
20 12 34 6 37 -19z m-101 4 c3 -3 -12 -6 -35 -6 -23 0 -42 4 -42 8 0 10 67 8
77 -2z m368 -4 c-3 -3 -11 0 -18 7 -9 10 -8 11 6 5 10 -3 15 -9 12 -12z m2368
12 c3 -4 -3 -18 -13 -32 -11 -13 -20 -34 -20 -46 0 -12 -49 -121 -109 -241
-67 -134 -106 -224 -100 -229 5 -6 9 -15 9 -20 0 -6 -4 -4 -10 4 -5 8 -10 12
-12 10 -16 -25 -45 -81 -85 -162 -45 -92 -50 -98 -115 -138 -68 -42 -73 -52
-45 -87 12 -17 -3 -16 -25 1 -10 7 -15 16 -11 19 3 4 0 7 -8 7 -12 0 -11 2 1
10 18 12 -76 2 -100 -10 -8 -4 -60 -6 -115 -5 -90 3 -102 1 -122 -18 -24 -22
-31 -10 -13 24 10 17 22 19 128 19 l117 0 40 35 c22 19 43 35 47 35 5 0 8 5 8
11 0 10 7 25 71 167 16 34 29 65 29 67 0 3 15 37 34 77 19 40 46 102 61 138
80 192 99 223 156 259 30 19 56 38 59 42 3 3 28 20 55 37 49 31 75 38 88 26z
m-2568 -54 c-3 -5 -12 -10 -18 -10 -7 0 -6 4 3 10 19 12 23 12 15 0z m775 -10
c0 -4 -18 -10 -40 -12 -31 -3 -40 0 -40 12 0 12 9 15 40 12 22 -2 40 -8 40
-12z m158 8 c-5 -15 -78 -24 -78 -9 0 8 19 14 68 20 8 0 12 -5 10 -11z m-968
-8 c0 -5 -7 -10 -16 -10 -8 0 -12 5 -9 10 3 6 10 10 16 10 5 0 9 -4 9 -10z
m274 -10 c26 0 36 -4 36 -15 0 -13 -4 -14 -21 -4 -12 6 -37 9 -55 6 -29 -5
-34 -3 -34 14 0 16 3 18 19 9 11 -5 36 -10 55 -10z m220 6 c-3 -8 -12 -12 -20
-9 -21 8 -17 23 6 23 13 0 18 -5 14 -14z m-564 -6 c0 -5 -8 -10 -17 -10 -15 0
-16 2 -3 10 19 12 20 12 20 0z m-133 -6 c-3 -3 -12 -4 -19 -1 -8 3 -5 6 6 6
11 1 17 -2 13 -5z m595 -66 c-5 -115 -8 -120 -13 -20 -2 59 0 92 6 92 7 0 9
-27 7 -72z m1148 39 c8 -2 2 -3 -14 -1 -16 2 -48 4 -72 4 -24 0 -44 4 -44 9 0
14 93 18 105 5 6 -7 17 -14 25 -17z m-510 8 c0 -8 -2 -15 -4 -15 -2 0 -6 7
-10 15 -3 8 -1 15 4 15 6 0 10 -7 10 -15z m135 -15 c9 -14 52 -12 58 3 3 7 6
5 6 -5 1 -13 -7 -18 -26 -18 -38 0 -73 10 -73 21 0 12 27 11 35 -1z m-1355
-16 c0 -2 -7 -4 -15 -4 -8 0 -15 4 -15 10 0 5 7 7 15 4 8 -4 15 -8 15 -10z
m127 -16 c-3 -8 -6 -5 -6 6 -1 11 2 17 5 13 3 -3 4 -12 1 -19z m1387 7 c-6
-16 -24 -21 -24 -7 0 11 11 22 21 22 5 0 6 -7 3 -15z m-56 -37 c-3 -7 -12 -14
-21 -16 -12 -2 -15 1 -11 12 7 19 38 22 32 4z m-1138 -8 c0 -5 -2 -10 -4 -10
-3 0 -8 5 -11 10 -3 6 -1 10 4 10 6 0 11 -4 11 -10z m1060 0 c8 -5 11 -10 5
-10 -5 0 -17 5 -25 10 -8 5 -10 10 -5 10 6 0 17 -5 25 -10z m-90 -15 c0 -8 -4
-15 -10 -15 -5 0 -10 7 -10 15 0 8 5 15 10 15 6 0 10 -7 10 -15z m-1123 -11
c-3 -3 -12 -4 -19 -1 -8 3 -5 6 6 6 11 1 17 -2 13 -5z m127 -48 c-6 -15 -24
-23 -24 -11 0 8 24 34 28 30 1 -1 0 -10 -4 -19z m-324 4 c0 -5 -9 -10 -21 -10
-11 0 -17 5 -14 10 3 6 13 10 21 10 8 0 14 -4 14 -10z m1561 -135 c-6 -22 -18
-80 -26 -130 -9 -49 -21 -109 -26 -132 -5 -23 -9 -52 -9 -64 0 -31 -28 -59
-59 -59 l-27 0 8 83 c4 45 10 120 13 167 4 47 11 123 16 170 5 47 9 88 9 92 0
3 8 4 19 1 10 -3 22 1 26 7 5 8 18 -8 37 -41 26 -49 28 -58 19 -94z m224 125
c4 -6 -22 -10 -69 -10 -44 0 -76 4 -76 10 0 6 30 10 69 10 39 0 73 -4 76 -10z
m-2579 -38 c12 -8 16 -90 4 -97 -4 -3 -11 11 -14 30 -9 46 -29 55 -123 55
-124 0 -123 1 -123 -86 l0 -74 80 0 c69 0 82 3 92 20 24 37 38 24 38 -35 0
-41 -4 -55 -14 -55 -8 0 -17 9 -21 20 -7 23 -48 33 -120 28 l-50 -3 -5 -55
c-5 -54 -6 -55 -35 -54 -16 1 -42 7 -57 13 l-28 11 0 125 c0 124 0 126 -25
137 -14 6 -25 15 -25 20 0 10 411 11 426 0z m539 -2 c3 -5 -3 -10 -15 -10 -12
0 -18 5 -15 10 3 6 10 10 15 10 5 0 12 -4 15 -10z m215 -30 c11 -21 20 -50 20
-64 0 -27 16 -36 65 -36 37 0 57 -22 114 -123 30 -53 49 -137 31 -137 -4 0
-34 30 -67 68 -34 37 -86 94 -117 126 -40 41 -54 62 -46 70 16 16 12 30 -5 16
-8 -7 -15 -18 -15 -25 0 -10 67 -89 167 -198 14 -15 22 -31 18 -35 -7 -7 -65
52 -180 183 -38 44 -83 93 -99 109 l-29 30 -23 -52 c-13 -29 -28 -52 -35 -52
-14 0 -5 38 27 107 l24 53 65 0 65 0 20 -40z m375 32 c6 -4 19 -27 30 -52 10
-25 41 -92 67 -149 26 -57 48 -107 48 -112 0 -5 5 -9 10 -9 6 0 10 55 10 145
0 145 0 145 -25 157 -40 18 -29 28 33 28 66 0 82 -8 49 -24 -21 -11 -22 -18
-25 -161 l-3 -150 28 -22 28 -23 -128 0 -128 0 -77 158 -77 157 -3 -78 c-2
-56 -6 -77 -15 -74 -8 2 -14 36 -17 93 -4 79 -7 90 -27 100 -13 6 -20 14 -16
17 9 9 225 8 238 -1z m423 -14 c1 -8 -9 -20 -23 -26 -35 -16 -45 -49 -45 -155
0 -105 12 -132 62 -145 42 -11 49 -32 11 -32 -51 0 -128 29 -155 57 -39 43
-48 66 -48 131 0 96 39 148 133 178 48 15 61 13 65 -8z m253 -14 c4 -16 7 -44
8 -62 1 -31 -1 -33 -26 -30 -26 3 -28 6 -31 57 -2 37 1 57 10 62 20 13 32 5
39 -27z m702 29 c4 -3 -2 -12 -13 -20 -19 -13 -20 -26 -20 -169 0 -128 3 -156
15 -160 27 -11 16 -24 -20 -24 l-36 0 7 63 c4 34 11 64 15 67 9 6 -61 129 -73
130 -3 0 -8 -8 -11 -17 -2 -10 -4 17 -3 60 l0 77 66 0 c37 0 70 -3 73 -7z
m412 -2 c3 -6 -4 -15 -15 -21 -19 -10 -20 -20 -20 -164 l0 -154 30 -11 c17 -5
30 -12 30 -15 0 -4 -52 -6 -115 -6 -110 0 -149 11 -85 24 l30 6 0 155 c0 144
-1 156 -20 167 -11 7 -20 16 -20 20 0 12 178 10 185 -1z m321 -1 c46 -18 15
-33 -39 -19 -40 10 -51 9 -84 -7 -47 -24 -56 -56 -51 -181 3 -80 6 -95 27
-117 31 -32 11 -43 -40 -22 -119 50 -153 216 -61 299 51 46 183 71 248 47z
m407 -10 c7 -10 42 -85 77 -165 35 -80 68 -141 72 -137 5 5 7 71 6 148 -3 133
-4 139 -25 149 -38 16 -26 25 36 25 66 0 84 -11 46 -28 -25 -12 -25 -12 -25
-161 0 -140 1 -151 20 -161 42 -23 18 -30 -101 -30 l-120 0 -75 155 c-41 85
-74 164 -74 174 0 36 27 51 90 51 47 0 62 -4 73 -20z m-5210 -20 c3 -11 1 -23
-4 -26 -5 -3 -9 6 -9 20 0 31 6 34 13 6z m5037 -198 c0 -110 -2 -123 -17 -120
-15 3 -16 17 -14 122 1 65 5 125 8 133 14 35 23 -18 23 -135z m-3120 114 c0
-7 7 -27 15 -42 8 -16 15 -36 15 -44 0 -9 5 -21 11 -27 9 -9 6 -26 -11 -67
-22 -55 -50 -75 -50 -37 0 13 -11 23 -35 31 -19 6 -37 15 -40 20 -8 12 71 180
84 180 6 0 11 -6 11 -14z m345 -44 c-2 -2 6 -14 18 -27 12 -12 58 -64 102
-114 44 -51 99 -113 122 -139 31 -33 43 -56 43 -77 0 -28 -9 -21 -139 109
-125 126 -140 145 -160 201 -26 76 -26 78 -1 63 10 -7 17 -14 15 -16z m1720
-30 c23 -36 24 -39 11 -92 -7 -30 -18 -77 -24 -105 -46 -211 -57 -252 -70
-270 -13 -19 -14 -17 -9 18 5 31 3 37 -13 37 -10 0 -26 7 -35 16 -13 13 -16
14 -13 3 2 -8 -7 -27 -19 -42 l-21 -27 5 42 c7 62 8 65 40 71 55 12 57 16 77
172 3 17 11 65 20 108 8 43 13 84 10 92 -12 30 16 14 41 -23z m2642 16 c-3 -8
-6 -5 -6 6 -1 11 2 17 5 13 3 -3 4 -12 1 -19z m-3250 -120 c-6 -4 -21 -7 -32
-6 -17 3 -20 12 -23 60 -3 55 -2 57 25 60 27 3 28 1 35 -51 6 -40 4 -57 -5
-63z m-2272 14 c116 -30 253 -66 305 -79 52 -14 111 -29 130 -34 19 -6 51 -14
70 -18 115 -26 135 -41 152 -111 3 -12 -48 -47 -109 -75 -18 -9 -33 -20 -33
-26 0 -5 -4 -8 -9 -5 -15 10 -40 -5 -34 -20 3 -8 0 -14 -6 -14 -17 0 -13 19 9
56 l21 33 -22 20 c-14 13 -26 17 -33 12 -48 -40 -245 -5 -304 54 -28 29 -45
35 -135 52 l-102 19 -72 95 c-75 98 -84 116 -55 104 9 -4 112 -32 227 -63z
m5515 52 c0 -8 -5 -12 -10 -9 -6 4 -8 11 -5 16 9 14 15 11 15 -7z m-6553 -36
c-3 -7 -5 -2 -5 12 0 14 2 19 5 13 2 -7 2 -19 0 -25z m4203 5 c0 -5 -6 -30
-13 -58 -13 -49 -14 -50 -56 -53 -32 -2 -42 0 -39 10 3 7 11 13 19 14 8 0 19
2 25 2 6 1 19 22 28 47 10 25 22 45 27 45 5 0 9 -3 9 -7z m-2688 -75 c-7 -28
-13 -33 -41 -36 -43 -4 -63 13 -24 21 18 3 35 18 47 38 22 38 31 27 18 -23z
m5015 0 c-3 -7 -5 -2 -5 12 0 14 2 19 5 13 2 -7 2 -19 0 -25z m-6488 -40 c1
-5 -3 -8 -9 -8 -5 0 -10 12 -9 28 0 24 1 25 9 7 5 -11 9 -23 9 -27z m1941 11
c0 -5 -18 -9 -41 -9 -42 0 -45 14 -5 30 21 8 46 -4 46 -21z m2113 -36 l54 -66
-18 -56 c-9 -31 -22 -69 -29 -85 l-11 -30 -19 30 c-14 21 -20 24 -20 12 0 -17
-15 -22 -54 -18 -10 1 -23 -4 -28 -12 -7 -9 -8 -7 -3 7 5 11 11 40 15 65 19
109 46 220 54 220 3 0 29 -30 59 -67z m-1832 44 c-1 -12 -15 -9 -19 4 -3 6 1
10 8 8 6 -3 11 -8 11 -12z m2740 -19 c59 -9 73 -16 91 -40 11 -16 18 -31 15
-34 -5 -5 -215 -44 -226 -42 -3 1 -14 -2 -23 -6 -9 -4 -24 -6 -33 -4 -12 2 -4
18 32 70 27 37 54 67 61 68 7 0 45 -5 83 -12z m-4937 -93 c3 -8 1 -15 -4 -15
-6 0 -10 7 -10 15 0 8 2 15 4 15 2 0 6 -7 10 -15z m3263 -17 c-3 -7 -5 -2 -5
12 0 14 2 19 5 13 2 -7 2 -19 0 -25z m2273 -8 c13 -8 12 -10 -3 -10 -9 0 -25
-4 -35 -9 -31 -18 -150 -71 -157 -71 -6 0 -98 -41 -137 -61 -13 -7 -18 -5 -18
6 0 8 -9 15 -20 15 -11 0 -20 -5 -20 -10 0 -6 -13 -9 -29 -8 -38 3 -30 15 14
24 19 3 35 10 35 15 0 5 8 9 18 9 10 0 22 4 28 8 5 5 50 24 99 42 50 19 101
40 115 47 29 15 89 17 110 3z m-5518 -66 c-7 -12 -9 -8 -10 18 -1 26 1 30 9
16 6 -11 6 -24 1 -34z m27 -74 c0 -9 -4 -8 -9 5 -5 11 -9 27 -9 35 0 9 4 8 9
-5 5 -11 9 -27 9 -35z m2706 25 c22 -4 47 -9 55 -12 8 -3 22 -5 31 -4 8 1 24
-8 34 -19 16 -17 16 -20 2 -20 -9 0 -19 5 -22 10 -3 6 -17 10 -31 10 -14 0
-34 5 -45 10 -11 6 -25 7 -32 3 -18 -11 -77 -11 -77 0 0 5 -8 16 -17 24 -19
15 -9 15 102 -2z m2064 -2 c-23 -29 -32 -32 -45 -15 -17 24 -130 21 -148 -3
-7 -10 -19 -16 -27 -13 -9 3 -2 12 21 26 29 18 51 22 124 22 83 0 88 -1 75
-17z m-1502 -45 c-3 -8 -6 -5 -6 6 -1 11 2 17 5 13 3 -3 4 -12 1 -19z m1448
12 c4 -6 -7 -10 -27 -9 -31 1 -32 1 -8 9 14 4 26 8 27 9 1 1 5 -3 8 -9z
m-2355 -10 c0 -5 -2 -10 -4 -10 -3 0 -8 5 -11 10 -3 6 -1 10 4 10 6 0 11 -4
11 -10z m1491 -21 c-5 -13 -10 -19 -10 -12 -1 15 10 45 15 40 3 -2 0 -15 -5
-28z m1174 21 c-3 -5 -10 -10 -16 -10 -5 0 -9 5 -9 10 0 6 7 10 16 10 8 0 12
-4 9 -10z m-5003 -40 c3 -16 1 -30 -4 -30 -4 0 -8 14 -8 30 0 17 2 30 4 30 2
0 6 -13 8 -30z m46 -160 c0 -8 -6 1 -13 20 -7 19 -13 42 -13 50 0 8 6 -1 13
-20 7 -19 13 -42 13 -50z m1799 -42 c-3 -8 -6 -5 -6 6 -1 11 2 17 5 13 3 -3 4
-12 1 -19z m-260 -4 c-3 -3 -12 -4 -19 -1 -8 3 -5 6 6 6 11 1 17 -2 13 -5z
m1026 -24 c-18 -31 -20 -32 -63 -34 -24 -1 -25 -3 -26 -77 -2 -81 -10 -119
-25 -119 -5 0 -9 12 -9 28 0 15 -3 63 -6 108 l-7 81 44 8 c24 4 52 7 62 6 9
-1 20 5 23 13 3 9 10 16 16 16 5 0 1 -13 -9 -30z m1337 20 c0 -5 -5 -10 -11
-10 -5 0 -7 5 -4 10 3 6 8 10 11 10 2 0 4 -4 4 -10z m-2682 -25 c81 1 167 5
192 9 32 4 39 4 25 -3 -11 -5 -35 -10 -52 -10 -18 -1 -33 -5 -33 -11 0 -5 -10
-10 -22 -10 -13 0 -57 -10 -98 -21 -41 -12 -95 -25 -120 -30 -25 -5 -56 -13
-70 -18 -14 -5 -42 -12 -64 -16 l-38 -6 63 71 c40 44 65 66 67 57 3 -13 27
-15 150 -12z m2016 7 l17 23 -6 -25 c-4 -14 -11 -45 -16 -70 -5 -25 -13 -54
-18 -65 -5 -11 -13 -29 -17 -40 -7 -19 -8 -18 -12 5 -2 13 -1 63 3 109 6 75 9
82 19 62 l13 -23 17 24z m-974 -22 c4 0 11 8 16 18 13 30 24 -88 12 -136 -14
-58 -24 -60 -37 -10 -5 24 -14 61 -20 83 -6 22 -11 48 -11 58 0 17 1 17 16 3
8 -9 19 -16 24 -16z m500 15 c16 -19 40 -19 90 1 58 23 59 12 2 -25 -60 -38
-71 -38 -135 -3 l-51 27 35 6 c19 4 37 7 40 8 4 0 12 -6 19 -14z m909 -10 c11
18 12 17 6 -9 l-6 -30 19 25 c14 17 17 26 9 31 -7 4 -2 6 11 5 12 0 22 -5 22
-10 0 -7 -62 -89 -80 -107 -3 -3 -41 -48 -85 -100 -43 -52 -85 -100 -93 -105
-12 -9 -11 -20 1 -69 13 -47 13 -57 2 -52 -7 2 -16 -3 -20 -12 -10 -28 -25 6
-25 61 0 31 -4 47 -12 47 -9 0 -13 17 -14 48 -1 27 -12 71 -28 106 -14 33 -24
61 -22 64 11 11 57 -51 68 -92 7 -25 15 -46 18 -46 4 0 28 32 55 71 27 39 54
76 59 83 6 6 20 25 30 41 10 17 28 40 40 53 l21 24 5 -24 c6 -23 6 -23 19 -3z
m550 8 c1 9 8 17 17 17 19 0 14 -18 -26 -91 -29 -53 -150 -184 -150 -162 0 6
15 37 33 70 17 32 41 76 52 98 11 21 29 49 40 61 17 18 21 19 27 5 6 -14 7
-14 7 2z m-323 -23 c13 0 24 5 24 11 0 6 7 9 15 6 8 -4 17 -2 20 3 4 6 13 10
21 10 24 0 11 -12 -119 -112 -98 -75 -132 -96 -165 -101 -23 -3 -42 -2 -42 2
0 4 48 54 107 112 80 77 109 100 111 87 2 -11 13 -18 28 -18z m-3858 -41 c-3
-8 -7 -3 -11 10 -4 17 -3 21 5 13 5 -5 8 -16 6 -23z m3741 -333 c31 -64 57
-164 48 -187 -6 -17 -10 -8 -28 75 -15 68 -41 107 -59 90 -7 -7 -22 -33 -35
-60 l-23 -47 -16 31 c-20 39 -20 68 -1 76 23 9 46 71 39 104 l-7 27 26 -24
c15 -13 40 -51 56 -85z m-582 -188 c-2 -24 -4 -5 -4 42 0 47 2 66 4 43 2 -24
2 -62 0 -85z m253 107 c0 -8 -4 -15 -10 -15 -5 0 -7 7 -4 15 4 8 8 15 10 15 2
0 4 -7 4 -15z m200 -205 c18 -27 30 -60 30 -79 0 -46 -20 -35 -38 20 -8 24
-18 46 -21 49 -10 8 -41 71 -41 82 0 18 37 -21 70 -72z m32 -186 c-6 -32 -22
-21 -18 14 5 38 5 39 15 24 4 -7 6 -24 3 -38z m-455 -26 c-3 -7 -5 -2 -5 12 0
14 2 19 5 13 2 -7 2 -19 0 -25z m2589 -30 c4 -6 2 -14 -5 -16 -14 -5 -186
-134 -243 -183 -26 -22 -42 -29 -55 -25 -15 6 -12 13 27 47 25 22 81 67 125
101 44 33 79 67 77 74 -4 18 64 19 74 2z m534 -108 c-20 -13 -33 -13 -25 0 3
6 14 10 23 10 15 0 15 -2 2 -10z m-3117 -97 c3 -35 1 -63 -4 -63 -5 0 -9 30
-9 67 0 81 5 79 13 -4z m3057 38 c0 -6 -4 -13 -10 -16 -5 -3 -10 -13 -10 -22
0 -9 3 -13 7 -10 5 6 43 -45 43 -58 0 -15 -18 0 -37 30 -19 28 -23 52 -14 83
2 7 21 1 21 -7z m90 -1 c0 -5 -4 -10 -10 -10 -5 0 -10 5 -10 10 0 6 5 10 10
10 6 0 10 -4 10 -10z m-5501 -31 c41 -9 58 -19 91 -57 46 -52 122 -164 115
-170 -10 -10 -54 10 -60 27 -14 44 -111 128 -195 169 l-85 42 42 0 c23 0 65
-5 92 -11z m5501 -12 c0 -15 -29 -57 -30 -42 0 6 3 20 6 33 7 24 24 31 24 9z
m-1037 -31 c81 -14 92 -20 145 -75 36 -37 36 -49 0 -30 -38 21 -174 40 -343
48 -164 9 -200 5 -349 -34 -116 -30 -245 -117 -398 -265 -72 -69 -89 -91 -90
-117 -2 -25 -7 -33 -21 -33 -27 0 -57 19 -57 36 0 8 60 76 133 150 126 130
212 200 287 236 36 18 164 54 285 81 39 9 79 18 90 21 33 8 234 -3 318 -18z
m-2083 -146 c4 -3 2 -16 -5 -30 -13 -23 -14 -19 -13 50 1 50 3 60 5 30 3 -24
8 -47 13 -50z m412 43 c-5 -10 -19 -61 -32 -113 -25 -110 -40 -150 -64 -169
-31 -26 -28 -3 7 57 30 51 34 67 30 102 -7 50 13 116 41 135 24 18 31 13 18
-12z m-681 -78 c48 -52 74 -93 66 -102 -9 -8 -73 26 -94 50 -20 23 -43 90 -42
123 0 18 1 18 12 -1 7 -10 33 -42 58 -70z m525 59 c-4 -15 -10 -40 -13 -58 -8
-40 -18 -53 -65 -77 l-38 -19 0 22 c1 29 15 53 65 111 45 53 60 59 51 21z
m-1766 -100 c75 -23 211 -91 224 -112 2 -4 -39 14 -92 40 -54 26 -115 50 -137
53 -40 6 -478 -10 -565 -20 -77 -9 -154 -27 -182 -41 -38 -20 -41 -18 -22 16
25 42 70 56 239 74 83 9 164 18 180 20 17 3 84 3 150 0 93 -3 139 -10 205 -30z
m-1673 -30 c3 -9 1 -24 -5 -34 -6 -10 -7 -22 -1 -31 12 -19 11 -38 -1 -19 -9
13 -12 12 -25 -4 -8 -11 -15 -32 -15 -48 0 -15 -5 -28 -10 -28 -6 0 -15 -10
-20 -22 -6 -13 -19 -36 -30 -53 -33 -51 -51 -99 -47 -122 3 -14 -1 -23 -8 -23
-17 0 -83 29 -67 30 6 0 12 9 12 20 0 11 3 20 8 20 8 0 32 48 32 65 0 6 11 27
25 48 14 20 23 37 20 37 -3 0 3 10 15 22 11 12 20 28 20 36 0 7 12 33 26 58
18 31 22 44 12 44 -10 0 -9 3 2 10 23 15 50 12 57 -6z m4163 -59 c0 -24 -20
-59 -45 -78 l-24 -17 27 54 c27 54 42 69 42 41z m-305 -67 c-9 -53 -11 -56
-31 -36 -23 22 -10 78 18 78 18 0 19 -4 13 -42z m205 -68 c-24 -34 -166 -160
-180 -160 -22 0 -8 31 28 59 20 17 64 53 97 80 69 57 85 64 55 21z m-491 -114
c6 -4 11 -11 11 -17 0 -5 -13 3 -30 18 -16 14 -30 36 -30 47 0 18 3 16 19 -10
11 -18 24 -35 30 -38z m-269 36 c0 -4 -28 -26 -63 -50 -52 -35 -68 -41 -87
-34 -19 7 -20 10 -7 15 10 4 17 13 17 21 0 9 9 20 21 27 19 10 20 8 14 -10 -4
-15 -2 -21 9 -21 8 0 18 5 22 11 5 9 64 49 72 49 1 0 2 -3 2 -8z m127 -94 c-2
-18 -4 -6 -4 27 0 33 2 48 4 33 2 -15 2 -42 0 -60z m196 35 c-7 -2 -19 -2 -25
0 -7 3 -2 5 12 5 14 0 19 -2 13 -5z m-373 -50 c0 -5 -5 -15 -10 -23 -8 -12
-10 -11 -10 8 0 12 5 22 10 22 6 0 10 -3 10 -7z m825 -4 c-4 -6 -11 -23 -15
-37 -8 -25 -8 -24 -9 11 -1 27 3 37 15 37 8 0 12 -5 9 -11z m-75 -14 c0 -17
-4 -18 -39 -8 -23 6 -23 7 -5 14 30 12 44 10 44 -6z m-780 -20 c10 -12 9 -16
-4 -21 -24 -9 -47 3 -40 21 8 19 28 19 44 0z m1195 -1 c50 -20 39 -28 -18 -12
-30 8 -42 15 -34 20 6 4 13 8 13 8 1 0 18 -7 39 -16z m-996 -71 c-8 -10 -18
-21 -24 -25 -5 -4 -10 -11 -10 -15 -1 -16 -34 -70 -51 -84 -16 -13 -17 -12
-10 6 5 11 11 30 13 42 3 13 10 20 15 17 5 -3 9 0 7 7 -4 36 1 51 14 41 10 -9
17 -6 27 8 8 11 18 20 23 20 5 0 3 -8 -4 -17z m347 2 c-27 -21 -53 -20 -36 0
7 8 22 15 34 15 21 -1 21 -1 2 -15z m2204 5 c0 -5 -5 -10 -11 -10 -5 0 -7 5
-4 10 3 6 8 10 11 10 2 0 4 -4 4 -10z m-2026 -82 c-12 -17 -15 -18 -10 -5 3
11 9 31 13 45 7 25 8 26 11 5 2 -13 -4 -33 -14 -45z m631 24 c-1 -1 -17 3 -35
10 -28 9 -31 12 -15 18 15 5 57 -17 50 -28z m-901 4 c-3 -8 -12 -12 -20 -9
-21 8 -17 23 6 23 13 0 18 -5 14 -14z m2227 -29 c-10 -9 -11 -8 -5 6 3 10 9
15 12 12 3 -3 0 -11 -7 -18z m-2690 1 c3 -25 -2 -114 -7 -141 -10 -49 -24 -16
-31 71 -6 79 -5 82 16 82 11 0 22 -6 22 -12z m579 -14 c0 -2 -9 -4 -20 -4 -11
0 -20 4 -20 9 0 5 9 7 20 4 11 -3 20 -7 20 -9z m-1403 -19 c0 -8 -4 -15 -9
-15 -4 0 -8 7 -8 15 0 8 4 15 8 15 5 0 9 -7 9 -15z m3637 -1 c5 -14 4 -15 -9
-4 -17 14 -19 20 -6 20 5 0 12 -7 15 -16z m-2104 -4 c0 -5 -7 -7 -15 -4 -8 4
-15 8 -15 10 0 2 7 4 15 4 8 0 15 -4 15 -10z m-1430 -24 c0 -6 3 -21 6 -33 5
-17 2 -22 -14 -20 -11 0 -18 6 -15 12 2 6 -1 23 -6 37 -9 23 -7 25 10 21 10
-3 19 -10 19 -17z m817 4 c-3 -10 0 -21 7 -24 6 -3 -1 -3 -16 0 -21 5 -28 1
-33 -16 -4 -12 -4 -24 -1 -27 3 -4 6 1 6 10 0 10 5 17 10 17 19 0 10 -27 -15
-46 -17 -13 -21 -22 -14 -30 6 -7 7 -28 3 -48 l-6 -36 -17 32 c-20 38 -16 58
5 31 13 -16 13 -15 4 10 -6 17 -6 36 0 50 5 12 11 39 15 60 5 32 10 37 32 37
20 0 24 -4 20 -20z m2583 10 c0 -22 36 -50 63 -50 21 0 28 -4 24 -14 -5 -12
60 -86 75 -86 4 0 8 12 10 28 3 27 4 27 9 -5 3 -18 2 -30 -3 -27 -4 3 -8 0 -8
-5 0 -6 6 -11 13 -11 34 0 43 -104 11 -117 -8 -3 -15 -19 -15 -37 -2 -29 -2
-29 -6 -4 -2 15 -22 43 -45 64 -38 34 -158 96 -214 110 -22 6 -25 11 -19 33
15 62 105 166 105 121z m-3815 -20 c3 -5 1 -10 -4 -10 -6 0 -11 5 -11 10 0 6
2 10 4 10 3 0 8 -4 11 -10z m470 -8 c-3 -3 -11 0 -18 7 -9 10 -8 11 6 5 10 -3
15 -9 12 -12z m1365 2 c0 -8 -4 -12 -10 -9 -5 3 -10 10 -10 16 0 5 5 9 10 9 6
0 10 -7 10 -16z m-1480 -8 c0 -3 -4 -8 -10 -11 -5 -3 -10 -1 -10 4 0 6 5 11
10 11 6 0 10 -2 10 -4z m3611 -50 c-10 -19 -11 -19 -6 7 4 18 2 26 -4 22 -7
-4 -8 0 -4 11 5 15 7 15 16 -1 6 -11 5 -24 -2 -39z m-3451 -6 c6 0 10 -7 10
-16 0 -10 -8 -6 -25 14 -14 17 -25 36 -25 43 1 8 8 2 16 -13 8 -16 19 -28 24
-28z m-256 25 c3 -8 3 -15 0 -15 -3 0 -12 7 -20 15 -13 13 -13 15 -1 15 8 0
17 -7 21 -15z m2532 -50 c15 -20 17 -76 6 -140 -13 -69 -72 -53 -72 19 0 47
-19 105 -42 128 l-21 21 58 -5 c41 -3 62 -10 71 -23z m-2551 -5 c-3 -5 -10
-10 -16 -10 -5 0 -9 5 -9 10 0 6 7 10 16 10 8 0 12 -4 9 -10z m159 -16 c3 -8
2 -12 -4 -9 -6 3 -10 10 -10 16 0 14 7 11 14 -7z m-297 -20 c-3 -3 -12 -4 -19
-1 -8 3 -5 6 6 6 11 1 17 -2 13 -5z m56 -1 c-7 -2 -19 -2 -25 0 -7 3 -2 5 12
5 14 0 19 -2 13 -5z m310 0 c-7 -2 -21 -2 -30 0 -10 3 -4 5 12 5 17 0 24 -2
18 -5z m117 -33 c0 -4 -16 -2 -35 4 -31 10 -33 12 -18 23 13 11 20 10 35 -4
10 -9 18 -19 18 -23z m562 -51 c13 -63 18 -228 7 -235 -21 -13 -27 13 -32 144
-4 98 -3 132 6 129 6 -2 15 -19 19 -38z m1136 32 c15 -9 -128 -21 -263 -21
-87 0 -194 -24 -262 -59 -10 -5 -71 -33 -135 -62 -64 -30 -117 -57 -117 -61
-1 -4 19 -32 44 -63 63 -77 108 -162 100 -192 -6 -24 -78 -83 -101 -83 -7 0
-15 18 -19 40 -8 50 -108 256 -127 263 -29 10 11 43 88 70 43 16 97 37 119 47
22 10 63 28 90 40 28 12 73 32 100 44 28 12 61 27 75 34 29 13 388 16 408 3z
m772 1 c0 -4 -5 -13 -10 -18 -6 -6 -15 -39 -21 -75 -11 -69 -28 -95 -55 -85
-9 3 -14 9 -11 12 3 3 -3 26 -14 51 -28 65 -25 75 29 100 49 22 82 28 82 15z
m-4700 -11 c0 -14 -39 -57 -40 -43 0 6 5 12 10 12 6 0 10 9 10 20 0 11 5 20
10 20 6 0 10 -4 10 -9z m36 -42 c19 -22 19 -22 -3 -8 -13 8 -23 17 -23 21 0
12 6 9 26 -13z m-80 -46 c-10 -10 -19 5 -10 18 6 11 8 11 12 0 2 -7 1 -15 -2
-18z m132 -18 c-3 -3 -9 2 -12 12 -6 14 -5 15 5 6 7 -7 10 -15 7 -18z m-152
-32 c-11 -11 -17 4 -9 23 7 18 8 18 11 1 2 -10 1 -21 -2 -24z m4419 27 c-3 -5
-10 -10 -16 -10 -5 0 -9 5 -9 10 0 6 7 10 16 10 8 0 12 -4 9 -10z m60 -10 c3
-5 1 -10 -4 -10 -6 0 -11 5 -11 10 0 6 2 10 4 10 3 0 8 -4 11 -10z m-100 -10
c3 -6 -4 -10 -17 -10 -18 0 -20 2 -8 10 19 12 18 12 25 0z m75 -25 c0 -8 -4
-15 -10 -15 -5 0 -10 7 -10 15 0 8 5 15 10 15 6 0 10 -7 10 -15z m-37 -2 c-7
-2 -19 -2 -25 0 -7 3 -2 5 12 5 14 0 19 -2 13 -5z m-4436 -50 c-3 -10 -5 -2
-5 17 0 19 2 27 5 18 2 -10 2 -26 0 -35z m246 36 c27 -14 37 -28 37 -51 0 -15
-9 -18 -48 -18 -52 0 -116 -33 -227 -116 -65 -48 -75 -52 -75 -28 0 25 40 74
60 74 10 0 22 5 25 10 4 6 23 19 43 29 20 11 46 28 57 38 11 10 37 27 58 36
20 10 37 22 37 27 0 13 7 12 33 -1z m4157 -10 c0 -6 -9 -13 -20 -16 -11 -3
-18 -9 -15 -13 10 -16 -15 -21 -30 -6 -22 21 -19 39 5 33 11 -3 20 -1 20 4 0
5 9 9 20 9 11 0 20 -5 20 -11z m120 -19 c0 -3 -18 -7 -40 -8 -42 -2 -56 14
-17 20 27 4 57 -2 57 -12z m-420 -10 c0 -5 11 -10 24 -10 14 0 27 -4 31 -9 3
-6 18 -3 35 7 23 13 32 14 42 4 9 -9 8 -12 -10 -12 -12 0 -22 -4 -22 -10 0
-17 44 -21 85 -6 22 8 42 12 45 9 10 -9 -34 -33 -62 -33 -15 0 -28 -4 -28 -9
0 -16 -108 -31 -135 -19 -40 18 -29 27 28 22 38 -4 48 -3 37 5 -8 6 -22 11
-31 11 -8 0 -25 11 -37 25 -24 28 -27 35 -12 35 6 0 10 -4 10 -10z m1730 -3
c0 -2 -9 -15 -20 -28 -11 -13 -23 -29 -27 -34 -34 -44 -73 -83 -73 -73 0 7 22
38 50 68 27 30 49 58 50 63 0 7 20 11 20 4z m-1782 -24 c0 -5 2 -16 7 -27 5
-12 3 -21 -6 -27 -11 -6 -8 -9 9 -9 12 0 22 -4 22 -10 0 -5 -9 -10 -19 -10
-11 0 -23 -4 -26 -10 -3 -5 -11 -10 -16 -10 -6 0 -7 6 -3 13 5 8 2 8 -9 -2
-12 -9 -17 -10 -17 -2 0 6 7 14 16 18 10 4 15 17 14 37 -3 43 -2 46 15 46 8 0
14 -3 13 -7z m-328 -18 c0 -15 -38 -45 -57 -45 -30 0 -30 17 0 23 19 4 19 4
-5 6 -51 2 -41 21 11 21 28 0 51 -2 51 -5z m158 -24 c2 -5 22 -7 45 -5 34 3
37 2 17 -5 -14 -5 -20 -10 -15 -11 6 -1 18 -3 28 -5 9 -2 17 3 17 11 0 8 7 14
15 14 8 0 15 -3 15 -7 0 -15 -20 -38 -32 -38 -7 -1 -11 -7 -9 -15 5 -22 3 -79
-4 -91 -9 -14 -25 -1 -25 21 0 10 -15 39 -34 63 -19 25 -31 48 -28 52 4 4 -4
4 -17 0 -16 -5 -21 -4 -17 4 5 7 -5 11 -31 10 -30 0 -34 -2 -18 -9 18 -7 18
-8 -8 -15 -28 -7 -54 4 -29 12 6 3 12 12 12 20 0 13 10 15 57 10 32 -3 59 -10
61 -16z m-161 -58 c-9 -9 -20 -13 -24 -9 -4 4 -1 11 7 16 25 16 35 11 17 -7z
m-67 -3 c0 -5 -2 -10 -4 -10 -3 0 -8 5 -11 10 -3 6 -1 10 4 10 6 0 11 -4 11
-10z m17 -22 c-3 -8 -6 -5 -6 6 -1 11 2 17 5 13 3 -3 4 -12 1 -19z m-1631 -9
c8 -14 -10 -11 -32 6 -18 13 -18 14 4 8 12 -3 25 -9 28 -14z m140 5 c18 -14
17 -14 -13 -9 -28 6 -33 4 -33 -12 0 -19 90 -87 100 -76 3 3 -1 8 -7 10 -17 6
-16 21 1 38 10 10 16 11 25 2 14 -14 15 -37 1 -37 -5 0 -10 -13 -10 -30 0 -40
28 -41 36 -1 6 27 7 28 23 12 16 -15 16 -16 -2 -23 -15 -6 -17 -14 -12 -38 4
-17 2 -30 -3 -30 -6 0 -8 -10 -4 -22 5 -23 5 -23 -16 -4 -12 11 -23 29 -23 40
-1 12 -5 6 -9 -14 l-7 -35 -2 38 c-2 74 -22 99 -95 126 -58 22 -85 41 -56 41
18 0 10 17 -12 27 -19 8 -11 10 38 11 41 1 68 -4 80 -14z m30 -36 c-3 -13 -5
-24 -5 -26 -1 -2 -6 0 -11 3 -7 4 -7 13 0 26 14 25 21 24 16 -3z m2091 -30
c13 -12 23 -32 23 -44 0 -21 -2 -20 -34 10 -18 17 -44 39 -57 49 l-24 18 35
-6 c19 -3 44 -15 57 -27z m-1907 -133 c0 -1 -15 -2 -34 -3 -28 -1 -35 3 -38
21 -8 41 2 45 37 14 19 -17 35 -31 35 -32z m989 -60 c0 -5 -9 1 -20 15 -11 14
-18 20 -15 14 3 -6 -3 -19 -14 -29 -16 -14 -24 -15 -54 -5 -47 15 -45 21 5 18
48 -3 64 16 23 26 -20 5 -24 10 -16 18 8 8 15 8 27 -2 13 -11 15 -10 9 6 -4
11 6 4 24 -16 17 -19 31 -39 31 -45z m-924 27 c17 -12 18 -14 2 -8 -10 3 -25
6 -32 6 -7 0 -15 7 -18 14 -7 17 16 11 48 -12z m785 8 c0 -5 -5 -10 -11 -10
-5 0 -7 5 -4 10 3 6 8 10 11 10 2 0 4 -4 4 -10z m-807 -27 c-7 -2 -19 -2 -25
0 -7 3 -2 5 12 5 14 0 19 -2 13 -5z m-48 -13 c3 -5 -1 -10 -9 -10 -8 0 -18 5
-21 10 -3 6 1 10 9 10 8 0 18 -4 21 -10z m-125 -10 c0 -6 10 -15 23 -20 15 -6
17 -9 6 -9 -22 -1 -70 24 -62 32 10 11 33 8 33 -3z m271 -17 c-12 -20 -14 -14
-5 12 4 9 9 14 11 11 3 -2 0 -13 -6 -23z m704 17 c3 -5 -3 -10 -15 -10 -12 0
-18 5 -15 10 3 6 10 10 15 10 5 0 12 -4 15 -10z m-888 -26 c-3 -3 -12 -4 -19
-1 -8 3 -5 6 6 6 11 1 17 -2 13 -5z m123 -4 c0 -5 -7 -10 -15 -10 -8 0 -15 5
-15 10 0 6 7 10 15 10 8 0 15 -4 15 -10z m159 -12 c0 -16 -2 -18 -6 -8 -3 8
-11 18 -17 22 -7 5 -4 8 7 8 11 0 17 -7 16 -22z m-1285 -24 c3 -8 2 -14 -2
-14 -10 0 -32 22 -32 32 0 12 28 -2 34 -18z m1986 22 c0 -2 -7 -7 -16 -10 -8
-3 -12 -2 -9 4 6 10 25 14 25 6z m-874 -16 c15 -6 25 -13 22 -15 -3 -3 -20 1
-39 9 -38 17 -25 21 17 6z m-1181 -10 c3 -5 1 -10 -4 -10 -6 0 -11 5 -11 10 0
6 2 10 4 10 3 0 8 -4 11 -10z m1980 0 c-3 -5 -10 -10 -16 -10 -5 0 -9 5 -9 10
0 6 7 10 16 10 8 0 12 -4 9 -10z m-695 -10 c0 -5 -7 -10 -16 -10 -8 0 -12 5
-9 10 3 6 10 10 16 10 5 0 9 -4 9 -10z m93 3 c-7 -2 -21 -2 -30 0 -10 3 -4 5
12 5 17 0 24 -2 18 -5z m-133 -30 c0 -11 -3 -14 -8 -7 -4 6 -14 14 -22 17 -10
4 -8 6 8 6 15 1 22 -5 22 -16z m-1102 -33 c12 -19 11 -20 -15 -14 -35 9 -43
13 -43 25 0 17 45 9 58 -11z m1450 0 c7 -11 19 -20 27 -20 8 0 15 -4 15 -10 0
-5 18 -13 40 -16 22 -4 40 -8 40 -11 0 -9 -44 -63 -52 -63 -4 0 -8 6 -8 14 0
18 -53 28 -86 16 -35 -14 -36 -13 -29 11 6 18 4 20 -14 14 -15 -4 -21 -2 -21
9 0 8 5 18 11 21 6 4 8 13 5 21 -5 14 19 33 44 34 8 0 21 -9 28 -20z m1539
-45 c-9 -19 -24 -35 -32 -35 -13 0 -14 3 -3 23 7 12 13 24 14 27 6 27 18 40
27 31 8 -8 6 -21 -6 -46z m-1077 30 c33 -17 33 -17 24 -39 -5 -13 -11 -12 -47
6 -53 27 -50 25 -42 37 9 15 31 14 65 -4z m-742 -12 c5 -16 -22 -27 -44 -19
-13 5 -14 9 -4 22 15 17 41 15 48 -3z m696 -24 c33 -26 33 -43 1 -57 -29 -13
-71 -1 -91 26 -21 26 -17 32 18 25 26 -5 30 -4 25 10 -9 24 15 22 47 -4z
m1604 -2 c2 -12 -3 -17 -17 -17 -12 0 -21 6 -21 13 0 31 32 34 38 4z m-3437
-49 c-9 -20 -10 -18 -10 17 0 31 2 36 9 23 6 -10 7 -25 1 -40z m1613 44 c6
-11 -21 -52 -35 -52 -13 0 -11 34 3 48 14 14 25 15 32 4z m-814 -51 c0 -5 -7
-14 -15 -21 -12 -10 -15 -10 -15 2 0 8 3 18 7 21 9 10 23 9 23 -2z m2100 -16
c0 -7 -12 -11 -27 -10 -41 3 -45 4 -39 13 8 13 66 10 66 -3z m-1256 -32 c3
-21 6 -56 8 -78 1 -22 3 -44 6 -48 7 -14 31 14 37 45 9 39 21 21 30 -44 4 -26
10 -48 13 -48 9 0 32 50 32 67 0 15 16 17 25 3 10 -16 25 -12 25 8 0 12 6 8
20 -13 27 -41 25 -45 -15 -45 -19 0 -35 -4 -35 -8 0 -4 15 -6 33 -4 43 5 63
-16 42 -44 -15 -18 -15 -18 -29 -1 -8 10 -26 20 -40 21 -21 3 -27 -3 -36 -30
-14 -42 -5 -91 19 -104 17 -8 18 -4 17 48 -1 43 2 57 13 57 22 0 31 -50 28
-156 l-2 -95 -62 -83 c-82 -110 -87 -113 -157 -100 -65 12 -73 8 -92 -37 -12
-29 -17 -32 -37 -25 -12 4 -49 16 -82 26 -98 30 -94 25 -79 96 7 36 10 78 5
103 l-7 41 -52 -3 c-46 -3 -55 -1 -82 26 -36 36 -38 61 -7 89 45 40 67 39 29
-3 -24 -26 -33 -52 -21 -60 6 -3 13 3 16 14 6 24 33 38 33 17 0 -31 20 -65 35
-59 19 8 20 24 1 24 -15 0 -28 24 -19 34 4 3 15 -1 25 -11 25 -22 33 -10 31
45 -4 81 43 216 79 228 10 3 33 21 50 40 37 40 51 44 38 8 -6 -14 -10 -30 -10
-35 0 -14 21 -11 40 6 9 8 34 19 56 24 21 5 31 9 22 10 -20 1 -24 26 -7 36 5
4 14 18 19 31 14 37 37 30 44 -13z m-1542 -8 c7 -9 20 -23 28 -32 8 -9 15 -23
16 -31 2 -8 12 -28 24 -44 28 -37 21 -46 -10 -13 -28 30 -44 32 -35 6 6 -19 4
-19 -23 -5 -34 16 -61 44 -44 44 6 0 13 -4 16 -9 7 -11 46 -2 46 10 0 5 -12 9
-27 10 -16 0 -22 3 -15 6 6 2 10 9 7 13 -3 5 -12 7 -19 4 -20 -8 -29 12 -16
36 13 24 34 26 52 5z m3633 -25 c3 -5 1 -10 -4 -10 -6 0 -11 5 -11 10 0 6 2
10 4 10 3 0 8 -4 11 -10z m-2865 -35 c0 -5 -5 -3 -10 5 -5 8 -10 20 -10 25 0
6 5 3 10 -5 5 -8 10 -19 10 -25z m2840 10 c0 -8 -8 -16 -17 -16 -17 -1 -17 -2
0 -6 21 -5 21 -10 3 -29 -19 -18 -27 -18 -20 1 5 11 2 13 -10 9 -10 -4 -16 -1
-16 9 0 13 24 32 58 46 1 1 2 -6 2 -14z m-3997 -67 c9 2 17 -1 17 -7 0 -6 -9
-11 -19 -11 -11 0 -22 -6 -24 -12 -4 -9 -6 -7 -6 3 -1 9 -10 24 -21 34 -11 10
-20 25 -20 34 1 11 9 7 28 -14 15 -17 35 -29 45 -27z m1087 21 c0 -6 -4 -7
-10 -4 -5 3 -10 11 -10 16 0 6 5 7 10 4 6 -3 10 -11 10 -16z m1363 -44 l-9
-27 -13 25 c-8 14 -11 34 -7 43 6 16 8 16 23 2 11 -12 13 -23 6 -43z m1627 -4
c0 -21 -16 -2 -24 29 -7 24 -6 24 8 6 9 -11 16 -27 16 -35z m-57 19 c-3 -11
-7 -20 -9 -20 -2 0 -4 9 -4 20 0 11 4 20 9 20 5 0 7 -9 4 -20z m-64 -20 c6 0
11 -4 11 -8 0 -5 -13 -7 -30 -4 -33 5 -33 4 -23 28 6 15 7 16 18 0 7 -9 17
-16 24 -16z m-3846 2 c10 -10 14 -22 10 -25 -3 -4 2 -16 12 -27 14 -16 20 -17
27 -8 5 9 8 6 8 -10 0 -17 -4 -21 -14 -15 -18 11 -91 78 -100 92 -12 19 39 13
57 -7z m4407 14 c0 -3 -4 -8 -10 -11 -5 -3 -10 -1 -10 4 0 6 5 11 10 11 6 0
10 -2 10 -4z m-2124 -43 c-11 -11 -19 6 -11 24 8 17 8 17 12 0 3 -10 2 -21 -1
-24z m-1939 21 c-3 -3 -12 -4 -19 -1 -8 3 -5 6 6 6 11 1 17 -2 13 -5z m3533
-32 c0 -5 11 -15 25 -22 14 -7 23 -16 20 -18 -3 -3 3 -11 13 -18 13 -10 14
-13 2 -14 -15 0 -80 58 -80 72 0 4 5 8 10 8 6 0 10 -4 10 -8z m537 -20 c6 -11
8 -24 3 -31 -5 -9 -11 -3 -18 18 -12 34 -3 41 15 13z m-37 -1 c0 -9 -24 -21
-42 -21 -6 0 -6 6 2 15 14 16 40 20 40 6z m-60 -31 c0 -5 -7 -10 -16 -10 -8 0
-12 5 -9 10 3 6 10 10 16 10 5 0 9 -4 9 -10z m-4267 -22 c4 -10 8 -9 16 2 9
13 11 13 11 -2 0 -10 5 -18 10 -18 6 0 13 -6 16 -14 3 -7 34 -44 70 -81 35
-36 61 -71 58 -77 -4 -6 -21 6 -39 28 -18 22 -39 39 -46 39 -6 0 -13 8 -15 17
-1 10 -13 31 -26 48 -20 26 -28 30 -61 26 -20 -2 -35 -1 -34 2 2 4 7 15 10 25
7 20 23 22 30 5z m4237 -48 c0 -34 -15 -57 -26 -39 -4 7 -3 14 4 17 6 2 9 18
5 40 -3 28 -2 33 6 22 6 -8 11 -26 11 -40z m120 -68 c-12 -39 -30 -81 -41 -93
-10 -12 -19 -32 -19 -45 0 -12 -3 -24 -7 -26 -5 -1 -18 -24 -31 -50 -13 -27
-28 -48 -33 -48 -5 0 -9 -8 -9 -17 0 -10 -12 -31 -26 -48 -14 -16 -22 -24 -18
-16 5 11 3 13 -9 8 -21 -8 -22 9 -3 29 13 12 15 11 19 -8 3 -19 5 -18 6 6 0
16 8 34 16 40 9 6 17 25 19 41 2 17 9 29 14 28 6 -1 16 11 24 27 7 17 16 30
20 30 4 0 5 7 2 15 -4 8 2 27 12 43 10 15 20 36 21 47 2 11 10 23 18 28 8 4
15 16 15 25 0 15 -2 15 -11 2 -8 -11 -9 -9 -3 10 3 14 13 29 21 33 7 5 11 13
7 18 -3 6 -2 18 2 27 19 41 14 -40 -6 -106z m-40 98 c0 -5 -6 -10 -14 -10 -8
0 -18 5 -21 10 -3 6 3 10 14 10 12 0 21 -4 21 -10z m-390 -10 c0 -5 -2 -10 -4
-10 -3 0 -8 5 -11 10 -3 6 -1 10 4 10 6 0 11 -4 11 -10z m30 -21 c0 -6 -4 -7
-10 -4 -5 3 -10 11 -10 16 0 6 5 7 10 4 6 -3 10 -11 10 -16z m-4763 -9 c-1
-11 -5 -20 -9 -20 -4 0 -8 9 -8 20 0 11 4 20 9 20 6 0 9 -9 8 -20z m4988 -65
c-13 -38 -29 -71 -34 -73 -6 -2 -11 -13 -11 -25 0 -11 -3 -18 -6 -14 -9 9 7
68 17 61 5 -3 9 5 9 17 0 23 39 113 46 106 2 -1 -7 -34 -21 -72z m125 20 c0
-14 -9 -33 -19 -42 -11 -9 -18 -20 -15 -25 3 -4 0 -8 -6 -8 -7 0 -9 -8 -5 -20
8 -25 -3 -62 -16 -54 -6 4 -6 11 1 19 9 11 8 20 -4 37 -20 29 -21 68 -1 68 8
0 15 9 15 19 0 19 12 29 38 30 6 1 12 -10 12 -24z m-4569 -107 c8 -7 21 -21
28 -31 12 -15 12 -17 -5 -11 -24 9 -54 34 -54 46 0 12 14 10 31 -4z m3779 -68
c10 -25 48 -60 65 -60 3 0 3 17 0 38 -6 35 -6 36 7 12 7 -14 24 -26 36 -28 16
-2 22 -10 22 -28 0 -14 5 -23 12 -21 7 1 14 -8 16 -20 4 -28 32 -31 32 -4 0
28 11 52 21 45 5 -3 9 -16 9 -29 0 -13 6 -30 13 -37 8 -7 20 -30 26 -51 19
-56 34 -35 28 37 -5 59 -5 60 11 37 10 -14 22 -41 28 -60 l10 -36 16 45 16 45
1 -40 c1 -22 -4 -57 -10 -78 -5 -21 -12 -66 -13 -100 -3 -54 -6 -62 -22 -60
-27 3 -127 -17 -141 -29 -7 -6 -20 -7 -29 -4 -12 4 -15 2 -11 -9 9 -21 -12
-29 -39 -15 -20 11 -27 11 -44 -5 -26 -23 -26 -11 0 22 11 14 20 35 20 47 -1
20 -1 20 -15 2 -14 -18 -19 -17 -132 34 -102 46 -131 55 -215 64 l-98 10 4 36
c2 19 6 42 9 50 3 8 8 37 12 63 5 37 10 47 21 43 9 -3 24 10 41 37 l27 42 11
-54 c10 -51 11 -53 27 -37 10 9 25 33 34 52 15 31 18 33 29 18 6 -10 17 -14
23 -10 14 9 27 -13 24 -44 -1 -22 -1 -23 7 -5 8 19 9 18 20 -7 6 -16 14 -28
19 -28 5 0 17 34 27 75 11 41 22 75 26 75 4 0 12 -13 19 -30z m699 -17 c1 -7
-5 -13 -13 -13 -12 0 -14 18 -7 55 3 12 19 -24 20 -42z m-99 21 c0 -8 -5 -12
-10 -9 -6 4 -8 11 -5 16 9 14 15 11 15 -7z m-4927 -79 c32 -26 57 -49 54 -51
-3 -3 -22 2 -42 10 -51 22 -69 21 -62 -4 8 -31 -13 -24 -62 21 -44 40 -50 60
-13 40 12 -6 29 -11 38 -11 15 0 15 3 -4 23 -12 13 -22 29 -22 35 0 17 41 -6
113 -63z m4844 31 c-3 -8 -1 -16 4 -18 6 -2 7 -12 3 -23 -8 -19 -9 -18 -14 5
-7 25 -3 50 7 50 3 0 3 -6 0 -14z m-5174 -41 c47 -36 77 -75 58 -75 -6 0 -26
9 -46 20 -46 26 -59 26 -45 -1 16 -29 7 -33 -29 -15 -20 11 -51 15 -95 13 -36
-1 -66 -4 -66 -6 0 -3 9 -24 21 -48 11 -23 19 -47 17 -52 -1 -4 -33 23 -69 60
-66 69 -66 69 -33 63 20 -4 34 -2 34 4 0 8 40 18 110 27 8 1 31 11 50 23 19
11 38 21 41 21 3 1 27 -15 52 -34z m145 -26 c18 -16 32 -35 30 -41 -4 -12 -78
48 -78 63 0 16 14 9 48 -22z m5058 -3 c-7 -29 9 -43 29 -26 15 13 19 8 16 -23
-3 -21 22 -47 43 -47 9 0 16 -4 16 -10 0 -20 -31 -9 -59 21 -16 17 -32 30 -35
30 -22 -3 -26 3 -26 39 0 23 5 40 11 40 7 0 9 -10 5 -24z m-4360 -17 c3 -6 22
-9 41 -7 28 3 39 -1 59 -25 28 -33 32 -58 6 -34 -23 21 -42 22 -42 1 0 -11 -6
-13 -20 -9 -17 6 -19 0 -22 -60 -2 -36 -7 -66 -13 -67 -11 -2 -74 118 -75 141
0 11 4 10 19 -3 26 -24 36 -4 16 33 -8 17 -15 32 -15 36 0 10 39 5 46 -6z
m3020 -97 c12 -9 26 -32 33 -51 20 -62 12 -66 -22 -11 -29 49 -36 55 -65 55
-32 0 -42 9 -19 18 24 10 52 6 73 -11z m-2761 -2 c3 -5 1 -10 -4 -10 -6 0 -11
5 -11 10 0 6 2 10 4 10 3 0 8 -4 11 -10z m-1841 -56 c-6 -24 -5 -25 15 -14 46
24 38 3 -20 -57 -34 -35 -63 -63 -65 -63 -3 0 -2 15 1 34 9 45 -4 50 -48 21
-42 -29 -47 -30 -47 -9 0 12 -7 15 -25 12 -31 -6 -32 2 -2 29 31 28 67 46 67
33 0 -17 25 -12 71 15 55 31 61 31 53 -1z m934 -173 c-2 -17 -1 -28 4 -25 4 3
8 -2 8 -10 0 -11 -8 -15 -25 -14 -30 3 -29 -1 -8 43 20 43 27 44 21 6z m-534
-30 c9 -12 8 -13 -3 -6 -11 6 -13 4 -6 -11 5 -10 9 -36 8 -56 -1 -48 11 -48
63 0 22 21 47 36 55 33 11 -3 11 -1 3 10 -13 16 -7 82 7 73 5 -3 9 -32 9 -66
0 -55 -2 -60 -20 -55 -11 3 -18 1 -15 -3 3 -5 1 -11 -5 -15 -19 -11 -10 -25
16 -25 24 0 24 -1 10 -22 -9 -12 -16 -29 -16 -38 0 -13 1 -13 10 0 5 8 10 11
10 7 0 -9 9 0 58 56 20 24 32 32 32 22 0 -9 -14 -30 -30 -47 -17 -17 -28 -33
-25 -36 3 -3 -3 -15 -13 -26 -28 -31 -35 -56 -15 -56 18 0 193 172 193 190 0
5 7 10 15 10 22 0 18 -15 -10 -46 -14 -15 -25 -28 -25 -30 0 -9 80 32 111 56
31 24 42 27 82 23 42 -5 47 -8 47 -30 0 -13 -7 -37 -15 -53 -19 -37 -6 -39 44
-9 18 11 36 18 39 15 3 -4 0 -6 -6 -6 -7 0 -12 -5 -12 -11 0 -7 11 -9 30 -5
17 3 42 9 58 12 22 4 35 -2 70 -37 50 -48 77 -103 94 -194 18 -98 31 -86 44
40 6 62 11 74 45 110 32 34 44 40 80 40 34 0 46 -6 66 -30 34 -42 63 -100 63
-128 0 -34 -121 -232 -149 -242 -21 -8 -26 2 -10 21 13 16 12 16 -7 6 -12 -6
-24 -8 -28 -5 -11 12 -6 33 9 33 8 0 12 6 9 13 -3 8 6 18 20 25 49 22 47 87
-5 140 -31 32 -34 62 -6 62 24 0 67 -40 67 -62 0 -29 25 -16 26 14 1 14 4 30
7 35 11 17 -32 63 -57 63 -37 0 -106 -81 -106 -124 0 -18 7 -39 15 -46 19 -16
19 -44 0 -60 -17 -14 -20 -46 -5 -55 6 -3 10 -13 10 -22 0 -9 7 -25 17 -35 15
-17 14 -18 -20 -18 -35 0 -35 -1 -42 -51 -4 -27 -4 -53 -1 -56 3 -4 6 6 6 20
0 17 5 27 14 27 9 0 22 -27 36 -74 13 -41 40 -101 61 -132 l39 -59 -33 -33
c-17 -19 -43 -40 -57 -47 -14 -7 -34 -22 -45 -32 -48 -44 -147 -123 -155 -123
-4 0 -6 9 -3 20 8 29 -12 25 -35 -7 -27 -38 -38 -23 -17 22 10 19 15 39 11 42
-3 3 -6 1 -6 -5 0 -7 -5 -12 -10 -12 -6 0 -43 -23 -82 -50 -69 -49 -172 -90
-225 -90 -35 0 -60 15 -138 87 -38 36 -108 92 -155 126 -191 136 -226 178
-254 304 -8 40 -24 90 -35 112 -15 29 -17 41 -8 44 9 3 9 9 0 26 -26 43 -4
121 33 121 8 0 12 5 9 10 -10 16 -35 12 -62 -10 -19 -15 -30 -17 -44 -9 -25
13 -24 32 1 24 11 -4 20 -2 20 4 0 6 7 11 15 11 21 0 19 4 -16 39 -35 36 -34
52 5 62 22 6 33 3 52 -16 23 -23 34 -62 14 -50 -5 3 -10 2 -10 -3 0 -5 20 -16
45 -24 l44 -15 -29 41 c-17 23 -46 58 -64 79 l-35 37 35 0 c43 0 44 17 2 28
-40 10 -98 91 -98 135 0 29 0 29 50 22 33 -5 55 -3 64 5 10 7 16 8 21 0 9 -15
25 -12 25 5 0 9 6 12 15 9 10 -4 15 0 15 12 0 11 4 25 9 33 8 13 12 13 26 1
10 -8 21 -24 26 -37 5 -13 13 -23 19 -23 5 0 2 15 -7 34 -10 21 -13 41 -8 53
8 17 8 17 13 -2 2 -11 9 -26 16 -34z m4655 33 c2 -2 2 -6 0 -9 -8 -7 -49 7
-49 17 0 8 38 2 49 -8z m335 1 c18 -19 10 -45 -14 -45 -21 0 -32 34 -17 49 14
14 13 14 31 -4z m-1966 -25 c3 -21 2 -22 -12 -11 -19 16 -21 44 -3 39 6 -3 14
-15 15 -28z m275 -2 c17 -30 17 -31 0 -17 -21 16 -33 31 -33 42 0 17 16 5 33
-25z m2057 -4 c10 -11 11 -23 4 -42 -11 -32 -41 -36 -60 -7 -12 18 -11 24 2
43 18 26 37 28 54 6z m-724 -4 c16 -6 36 -23 45 -38 30 -52 134 -82 233 -68
35 6 56 17 83 44 26 26 47 37 68 38 39 0 53 -11 61 -51 5 -27 14 -36 52 -53
26 -11 55 -23 65 -26 15 -5 16 -9 7 -27 -16 -29 -43 -59 -54 -59 -15 0 -35 33
-36 58 0 12 -4 22 -10 22 -5 0 -10 -13 -10 -29 0 -17 5 -33 10 -36 18 -11 11
-64 -10 -75 -37 -20 -58 -4 -57 43 0 23 -3 59 -8 80 -5 26 -4 46 5 62 10 19
11 31 2 50 -15 32 -35 24 -85 -31 -41 -46 -45 -60 -19 -67 14 -4 13 -5 -4 -6
-25 -1 -124 -95 -124 -117 0 -12 7 -15 26 -11 16 3 39 -3 58 -13 24 -14 48
-18 109 -16 l78 3 -6 -26 c-3 -14 -24 -56 -46 -92 -22 -36 -47 -84 -56 -107
-18 -47 -42 -59 -84 -42 -22 10 -32 10 -43 1 -10 -9 -16 -9 -21 -1 -5 8 -11 8
-21 -1 -11 -9 -18 -9 -26 -1 -9 9 -16 8 -29 -4 -16 -14 -21 -13 -58 10 -50 32
-60 51 -71 134 -9 73 -12 84 -28 125 -7 15 -15 39 -18 53 -3 13 -10 27 -15 30
-5 3 -9 18 -9 34 0 17 -13 52 -30 78 -32 52 -37 76 -19 87 5 4 14 18 19 31 10
26 30 30 76 14z m-668 -37 c-10 -2 -26 -2 -35 0 -10 3 -2 5 17 5 19 0 27 -2
18 -5z m-158 -23 c0 -5 -7 -10 -16 -10 -8 0 -12 5 -9 10 3 6 10 10 16 10 5 0
9 -4 9 -10z m1515 -31 c0 -7 -8 -15 -17 -17 -18 -3 -25 18 -11 32 10 10 28 1
28 -15z m-2055 -24 c18 -9 30 -24 30 -35 0 -16 -7 -20 -38 -20 -47 0 -90 33
-71 56 15 18 43 18 79 -1z m660 5 c0 -5 -4 -10 -10 -10 -5 0 -10 5 -10 10 0 6
5 10 10 10 6 0 10 -4 10 -10z m57 -22 c-3 -8 -6 -5 -6 6 -1 11 2 17 5 13 3 -3
4 -12 1 -19z m55 -20 c-7 -7 -12 -8 -12 -2 0 6 3 14 7 17 3 4 9 5 12 2 2 -3
-1 -11 -7 -17z m-521 -86 c-26 -4 -61 15 -61 33 0 24 24 23 53 -4 27 -24 27
-26 8 -29z m-3792 -18 c-16 -20 -29 -17 -29 5 0 11 -4 23 -10 26 -5 3 -10 11
-10 16 0 6 14 1 30 -11 25 -18 28 -25 19 -36z m5308 0 c-3 -3 -12 -4 -19 -1
-8 3 -5 6 6 6 11 1 17 -2 13 -5z m-3415 -238 c35 -39 36 -54 2 -27 -34 27 -48
18 -29 -19 22 -43 19 -45 -19 -16 -41 31 -46 32 -46 9 -1 -16 -2 -16 -16 2
-22 28 -66 115 -58 115 4 0 22 -9 40 -21 33 -20 34 -20 34 -1 0 11 -7 25 -15
32 -8 7 -15 17 -15 22 0 13 86 -55 122 -96z m3030 -268 c-9 -9 -15 -9 -24 0
-10 10 -10 15 2 22 20 12 38 -6 22 -22z m-3902 -413 c0 -3 -11 -23 -25 -44
-13 -22 -27 -51 -31 -66 -5 -19 -10 -23 -17 -16 -8 8 -6 21 7 45 10 19 16 38
13 43 -3 5 -2 15 4 23 6 10 9 11 9 3 0 -7 5 -13 10 -13 6 0 10 7 10 15 0 8 5
15 10 15 6 0 10 -2 10 -5z m35 -156 c-4 -23 -19 -67 -33 -98 -31 -67 -32 -123
-3 -184 19 -40 61 -144 61 -151 0 -2 -20 -30 -45 -62 -29 -37 -45 -68 -45 -86
0 -31 -24 -39 -34 -10 -3 9 -11 25 -18 36 -11 15 -11 19 0 23 28 10 112 100
112 119 0 11 -8 31 -17 44 -64 91 -91 201 -66 272 40 117 103 186 88 97z
m-125 -65 c-10 -18 -11 -30 -2 -49 7 -14 12 -36 12 -48 -1 -20 -3 -19 -30 13
-37 44 -37 66 -3 102 30 32 43 21 23 -18z m3415 -422 c6 -21 5 -23 -13 -13
-20 10 -35 45 -24 56 8 8 29 -16 37 -43z m-3635 -710 c0 -15 -6 -34 -12 -41
-11 -11 -7 -13 18 -8 18 4 39 1 48 -6 15 -11 15 -16 2 -52 -11 -32 -15 -36
-21 -22 -6 14 -10 15 -21 6 -8 -6 -12 -14 -10 -18 3 -4 -7 -7 -21 -6 -25 0
-26 -2 -30 -80 -4 -82 -14 -108 -39 -98 -8 3 -14 0 -14 -6 0 -13 -36 -15 -44
-2 -3 4 1 41 8 82 15 77 13 94 -10 85 -10 -4 -14 4 -14 30 0 30 4 37 30 45 23
9 32 20 40 52 6 23 13 48 15 55 2 6 20 12 40 12 32 0 35 -3 35 -28z m2514
-558 c20 -7 21 -38 3 -53 -18 -14 -27 -4 -27 31 0 30 1 31 24 22z m-384 -49
c0 -8 -4 -15 -10 -15 -5 0 -10 7 -10 15 0 8 5 15 10 15 6 0 10 -7 10 -15z
m483 -57 c18 -24 18 -27 3 -56 -17 -33 -68 -55 -106 -45 -17 4 -20 14 -20 54
0 38 4 49 16 49 8 0 20 -14 26 -30 14 -42 32 -32 36 19 4 47 15 49 45 9z m310
-322 c6 -16 -2 -28 -14 -20 -12 7 -11 34 0 34 5 0 11 -6 14 -14z"/>
<path d="M5482 8733 c7 -9 14 -10 23 -3 6 5 15 8 18 5 4 -3 5 -2 2 2 -3 3 -16
7 -29 8 -19 0 -22 -2 -14 -12z"/>
<path d="M3761 5075 c-24 -13 -48 -22 -53 -19 -20 13 -5 -27 25 -64 20 -26 40
-41 55 -41 20 -1 23 3 20 32 -2 19 -8 31 -16 29 -21 -4 -26 27 -7 48 23 25 36
25 63 0 11 -11 23 -16 27 -11 6 10 -42 51 -59 51 -6 -1 -31 -12 -55 -25z"/>
<path d="M3900 4818 c0 -13 7 -33 15 -44 8 -10 15 -27 15 -36 0 -10 5 -18 10
-18 16 0 12 38 -7 66 -16 25 -16 26 2 23 11 -2 26 -17 35 -32 13 -23 13 -29 1
-36 -7 -5 -12 -14 -10 -20 6 -16 22 -1 48 47 28 53 22 61 -53 69 -54 6 -56 5
-56 -19z"/>
<path d="M5662 4450 c0 -14 2 -19 5 -12 2 6 2 18 0 25 -3 6 -5 1 -5 -13z"/>
<path d="M5725 4450 c-4 -6 -13 -9 -21 -6 -20 8 -18 -28 2 -45 9 -7 21 -25 27
-39 11 -23 12 -21 15 29 3 53 -9 84 -23 61z"/>
<path d="M5888 4372 c-20 -2 -31 -14 -46 -45 -11 -23 -19 -43 -18 -44 1 -2 24
18 51 42 26 25 46 46 44 48 -2 1 -16 1 -31 -1z"/>
<path d="M420 4108 c0 -4 14 -8 31 -8 16 0 28 -4 24 -9 -3 -5 -1 -12 5 -16 5
-3 10 3 10 13 0 15 -8 21 -35 24 -19 2 -35 0 -35 -4z"/>
<path d="M1170 4110 c0 -5 4 -10 9 -10 6 0 13 5 16 10 3 6 -1 10 -9 10 -9 0
-16 -4 -16 -10z"/>
<path d="M725 4060 c-8 -13 5 -13 25 0 13 8 13 10 -2 10 -9 0 -20 -4 -23 -10z"/>
<path d="M915 3974 c-35 -37 -44 -67 -25 -79 5 -3 16 9 23 28 8 18 26 41 40
50 33 21 87 23 87 3 0 -8 10 -16 23 -18 19 -3 22 -9 22 -43 0 -37 -2 -40 -26
-38 -22 1 -26 -2 -22 -18 6 -20 67 -79 83 -79 5 0 24 28 41 62 33 66 34 103 2
135 -10 10 -31 19 -48 20 -16 1 -60 5 -98 9 l-67 6 -35 -38z"/>
<path d="M565 3731 c3 -11 1 -28 -6 -39 -9 -15 -7 -28 9 -65 23 -51 36 -58 52
-28 12 23 -25 137 -48 146 -9 3 -12 -1 -7 -14z"/>
<path d="M611 3520 l-25 -18 27 -33 c42 -53 59 -69 74 -69 24 0 13 22 -29 60
-38 33 -41 39 -29 54 20 24 10 28 -18 6z"/>
<path d="M1000 3400 c-8 -5 -50 -21 -92 -36 -43 -14 -78 -30 -78 -35 0 -13 12
-11 87 13 38 11 79 32 93 45 24 23 18 31 -10 13z"/>
<path d="M1418 3123 c6 -2 18 -2 25 0 6 3 1 5 -13 5 -14 0 -19 -2 -12 -5z"/>
<path d="M5456 3791 c-3 -5 2 -11 12 -13 25 -6 53 2 47 13 -8 12 -52 12 -59 0z"/>
<path d="M5660 3770 c0 -5 7 -10 15 -10 8 0 15 5 15 10 0 6 -7 10 -15 10 -8 0
-15 -4 -15 -10z"/>
<path d="M5525 3700 c-9 -15 4 -30 25 -30 29 0 50 11 50 26 0 16 -65 20 -75 4z"/>
<path d="M5241 2989 c-6 -18 -11 -57 -11 -88 0 -75 -15 -97 -24 -35 -3 26 -6
64 -6 85 0 68 -32 41 -44 -36 -9 -61 -10 -176 -2 -212 6 -26 4 -33 -8 -33 -33
0 -47 77 -26 149 5 19 7 53 3 75 -7 41 -7 41 -14 11 -4 -16 -7 -65 -8 -107 0
-43 -5 -78 -10 -78 -16 0 -42 99 -48 183 -5 67 -8 77 -15 52 -12 -47 -13 -177
0 -205 7 -14 19 -35 28 -47 15 -21 15 -22 -11 -29 -18 -5 -30 -2 -36 7 -7 11
-9 10 -9 -4 0 -11 12 -22 30 -28 34 -12 39 -27 13 -35 -38 -12 -63 -28 -63
-40 0 -20 23 -22 44 -2 25 23 49 23 44 1 -2 -11 -11 -17 -22 -15 -26 5 -16
-30 13 -44 34 -17 49 -8 56 37 7 39 8 40 38 33 31 -6 31 -6 15 13 -9 10 -29
20 -44 21 -31 2 -56 20 -48 33 3 5 15 3 26 -6 15 -10 25 -11 34 -5 14 12 58
-2 71 -22 4 -7 19 -22 31 -33 l24 -20 -6 50 -7 50 32 -63 c18 -34 33 -61 34
-60 2 2 -1 30 -6 63 -28 184 -39 278 -39 343 0 77 -11 92 -29 41z"/>
<path d="M5561 2994 c0 -11 3 -14 6 -6 3 7 2 16 -1 19 -3 4 -6 -2 -5 -13z"/>
<path d="M5941 2882 c-62 -66 -108 -89 -142 -71 -18 9 -19 7 -13 -44 4 -36 3
-57 -5 -61 -6 -4 -11 -6 -11 -4 0 2 -7 21 -15 43 l-14 40 -1 -60 c0 -33 -7
-71 -15 -85 l-14 -25 -1 35 c0 35 -19 114 -38 160 -8 19 -10 -4 -9 -94 2 -88
-1 -120 -10 -123 -9 -3 -13 9 -13 42 0 51 -26 164 -41 179 -5 6 -9 -1 -9 -20
-1 -16 -7 -40 -15 -54 -14 -25 -14 -25 -15 13 0 49 -19 124 -34 136 -9 8 -12
-17 -11 -104 0 -104 -1 -115 -17 -115 -15 0 -18 9 -18 55 0 70 -39 223 -51
199 -6 -11 6 -198 14 -232 7 -27 -1 -54 -14 -46 -12 7 -35 -17 -42 -42 -2 -10
-5 12 -6 50 -1 87 -20 198 -32 190 -13 -8 -11 -231 2 -240 6 -4 8 -20 4 -40
-3 -20 -2 -34 4 -34 13 0 32 35 24 44 -3 3 -1 6 5 6 7 0 19 -18 28 -40 9 -22
22 -40 29 -40 15 0 45 43 45 64 0 24 20 29 35 10 13 -17 14 -44 3 -129 -2 -11
-18 -31 -35 -44 -18 -13 -33 -32 -33 -41 0 -9 -5 -21 -11 -27 -6 -6 -13 -31
-14 -54 l-4 -43 33 39 c18 21 35 34 39 28 3 -5 0 -33 -8 -61 -7 -29 -9 -52 -5
-52 20 0 58 62 65 107 13 90 27 143 37 143 12 0 1 -105 -14 -133 -7 -14 -3
-23 19 -40 75 -59 132 -154 147 -246 9 -56 14 -65 32 -50 11 9 14 8 14 -4 0
-8 3 -23 7 -33 5 -14 2 -16 -15 -12 -18 5 -22 2 -22 -20 0 -36 32 -142 43
-142 5 0 6 8 1 18 -14 32 -16 102 -4 117 14 17 40 3 40 -21 0 -8 5 -14 10 -14
16 0 12 19 -11 51 -11 16 -23 45 -26 64 -4 28 -10 35 -28 35 -25 0 -38 30 -29
66 3 12 -2 27 -15 38 -25 22 -27 54 -6 62 8 4 15 14 15 23 0 22 -71 91 -93 91
-29 0 -38 45 -30 138 6 59 12 87 22 90 12 4 13 -7 8 -59 -3 -35 -9 -77 -12
-94 -6 -28 -5 -30 26 -31 25 -1 41 -11 66 -39 29 -33 33 -46 33 -94 0 -72 14
-98 30 -56 6 17 18 38 27 47 12 13 14 30 10 67 -5 44 -3 51 24 77 16 15 29 37
29 48 1 18 3 17 16 -6 22 -41 32 -34 28 17 -3 25 -1 45 3 45 5 0 20 -22 35
-50 15 -27 37 -54 49 -61 20 -10 21 -9 15 16 -5 19 -3 31 6 36 22 14 77 10
104 -8 20 -13 27 -14 34 -4 14 24 88 -19 90 -51 0 -11 -38 -10 -44 1 -3 5 -32
11 -63 13 -64 6 -103 -11 -103 -43 0 -25 15 -32 30 -14 18 21 30 9 30 -30 0
-50 9 -65 39 -65 35 0 61 45 38 64 -33 27 -25 76 9 61 11 -4 29 -7 41 -6 14 1
28 -7 39 -23 9 -14 20 -26 25 -26 16 0 9 25 -11 40 -25 18 -27 60 -2 60 9 0
31 -9 47 -20 18 -12 47 -20 71 -20 46 0 59 7 44 25 -30 36 -13 270 20 270 9 0
18 23 26 71 6 39 17 81 24 93 12 23 8 37 -8 27 -19 -12 -101 -164 -111 -204
-10 -46 -17 -59 -27 -49 -6 5 3 55 27 148 5 20 9 47 9 61 0 13 5 29 12 36 9 9
8 12 -4 12 -9 0 -27 -15 -39 -32 -13 -18 -27 -34 -31 -36 -4 -2 -8 -9 -8 -17
0 -7 -7 -18 -15 -25 -10 -8 -15 -9 -15 -1 0 21 33 97 58 129 26 36 24 49 -5
34 -29 -16 -128 -124 -149 -162 -23 -44 -45 -202 -33 -239 2 -8 -3 -16 -12
-18 -20 -5 -37 76 -18 88 6 4 9 11 6 15 -8 14 12 145 30 192 9 23 13 45 10 49
-10 9 -75 -67 -103 -119 -42 -82 -62 -57 -45 55 6 39 14 83 17 97 6 21 -1 18
-45 -25 -72 -69 -107 -123 -122 -190 -8 -37 -15 -51 -21 -43 -11 17 1 129 16
148 21 26 40 70 33 76 -11 12 -96 -68 -113 -106 -10 -22 -21 -37 -26 -34 -11
7 -10 44 2 44 6 0 10 5 10 11 0 6 20 34 45 62 25 29 45 56 45 62 0 5 25 34 55
64 31 30 53 56 50 59 -3 4 -32 -22 -64 -56z m-376 -269 c-4 -19 -10 -23 -23
-17 -9 4 -29 9 -44 11 -33 6 -27 33 7 33 35 0 55 10 56 29 1 9 4 5 6 -8 3 -12
2 -34 -2 -48z m-136 -14 c-9 -5 -15 -4 -18 2 -2 6 3 15 10 20 9 5 15 4 18 -2
2 -6 -3 -15 -10 -20z m910 -129 c21 -37 39 -52 43 -38 4 11 48 -68 48 -85 0
-16 -30 -4 -93 35 l-67 43 0 68 c0 38 5 78 12 90 10 20 13 18 27 -33 9 -30 22
-66 30 -80z m-889 100 c0 -5 -4 -10 -10 -10 -5 0 -10 5 -10 10 0 6 5 10 10 10
6 0 10 -4 10 -10z m143 -73 c-3 -15 -14 -32 -25 -38 -18 -10 -18 -7 4 30 12
22 23 39 24 38 1 -1 0 -15 -3 -30z m461 -24 c28 -48 26 -56 -11 -68 -22 -6
-23 -4 -23 54 0 34 2 61 4 61 2 0 16 -21 30 -47z m-355 -237 c13 -14 20 -30
16 -36 -4 -7 -17 0 -36 19 -16 17 -29 33 -29 36 0 14 29 2 49 -19z"/>
<path d="M6698 2873 c2 -38 -1 -86 -6 -108 l-10 -40 -1 58 c-1 39 -5 57 -14
57 -25 0 -103 -153 -121 -236 -6 -28 -2 -37 39 -78 l45 -46 22 20 c12 11 29
20 38 20 9 0 25 9 34 19 10 11 31 25 47 31 23 10 29 19 29 41 0 16 -4 29 -10
29 -5 0 -33 -21 -62 -47 -50 -44 -53 -46 -56 -24 -2 12 1 27 6 34 6 7 13 30
17 52 8 44 35 79 78 101 15 8 27 21 27 29 0 12 -8 14 -40 9 -31 -5 -41 -3 -46
10 -3 9 -1 23 6 32 10 11 10 18 2 26 -7 7 -12 27 -12 45 0 18 -3 33 -7 33 -5
0 -7 -30 -5 -67z"/>
<path d="M2690 2563 c-45 -8 -166 -42 -196 -55 l-29 -12 32 -4 c34 -3 103 8
193 33 30 8 87 18 125 22 57 6 64 8 40 14 -34 7 -127 9 -165 2z"/>
<path d="M3254 2499 c-21 -29 -43 -58 -49 -65 -7 -9 -4 -23 9 -45 l19 -32 -26
-21 c-20 -16 -24 -25 -16 -38 13 -24 39 -23 39 1 0 11 5 21 11 23 5 2 11 17
11 34 1 25 5 30 19 27 25 -7 24 -28 -1 -56 -26 -27 -9 -35 24 -10 32 23 32 26
-1 91 -23 45 -25 55 -12 63 7 5 10 9 6 9 -4 0 2 10 13 23 l22 22 27 -32 c29
-35 41 -41 41 -20 -1 20 -46 66 -73 72 -20 6 -30 -1 -63 -46z"/>
<path d="M6522 2490 c0 -14 2 -19 5 -12 2 6 2 18 0 25 -3 6 -5 1 -5 -13z"/>
<path d="M3318 2483 c7 -3 16 -2 19 1 4 3 -2 6 -13 5 -11 0 -14 -3 -6 -6z"/>
<path d="M2595 2450 c-19 -13 -30 -29 -31 -45 -1 -26 5 -24 45 13 18 18 25 8
12 -16 -21 -39 -11 -47 19 -15 47 50 142 60 148 15 5 -30 -16 -54 -39 -47 -23
8 -24 -4 -5 -50 14 -32 46 -49 46 -25 0 6 5 10 10 10 6 0 10 -14 10 -31 0 -20
4 -29 13 -27 21 7 37 51 37 101 0 54 10 59 38 20 18 -25 21 -26 28 -10 10 26
-21 56 -93 88 -71 33 -159 42 -173 19 -8 -12 -10 -12 -16 3 -8 22 -12 21 -49
-3z"/>
<path d="M3331 2454 c0 -12 7 -28 17 -35 15 -12 16 -12 6 1 -7 8 -14 24 -17
35 -4 19 -5 19 -6 -1z"/>
<path d="M5331 2413 c-1 -12 -4 -30 -7 -40 -6 -16 -5 -17 10 -2 13 12 14 21 7
40 -9 23 -10 23 -10 2z"/>
<path d="M1890 2399 c0 -11 4 -18 10 -14 5 3 7 12 3 20 -7 21 -13 19 -13 -6z"/>
<path d="M2501 2384 c0 -11 3 -14 6 -6 3 7 2 16 -1 19 -3 4 -6 -2 -5 -13z"/>
<path d="M2036 2381 c-48 -5 -62 -11 -81 -35 -47 -59 -51 -74 -27 -99 l22 -21
0 24 c0 35 35 88 63 95 12 3 35 1 50 -4 21 -8 27 -17 27 -41 0 -20 -5 -30 -15
-30 -8 0 -15 -6 -15 -12 1 -21 26 -48 44 -48 9 0 16 -7 16 -16 0 -9 6 -14 13
-11 17 6 11 116 -8 137 -19 21 -19 31 0 24 8 -3 17 -14 20 -25 4 -10 13 -19
21 -19 11 0 12 4 5 18 -12 22 -62 73 -70 71 -3 -1 -32 -5 -65 -8z"/>
<path d="M1870 2348 c0 -19 2 -20 10 -8 13 19 13 30 0 30 -5 0 -10 -10 -10
-22z"/>
<path d="M6740 2304 c-42 -15 -79 -40 -69 -47 2 -1 32 -1 67 1 61 4 62 4 62
33 0 33 0 33 -60 13z"/>
<path d="M6720 2240 c0 -5 0 -13 0 -17 0 -5 3 -8 8 -8 18 -1 32 -18 32 -40 0
-13 6 -25 13 -28 9 -3 8 -11 -5 -34 -15 -25 -15 -34 -4 -66 7 -21 18 -43 25
-50 11 -10 12 9 9 95 -3 96 -6 109 -27 132 -25 26 -51 34 -51 16z"/>
<path d="M5298 2206 c-15 -13 -33 -26 -40 -29 -9 -4 -10 -8 -3 -14 6 -4 21
-21 33 -37 26 -33 30 -109 9 -141 -31 -45 -36 -80 -20 -146 8 -35 12 -80 9
-99 l-5 -35 22 26 c86 104 206 88 266 -36 l18 -37 22 35 c25 41 39 48 64 35
15 -7 16 -17 11 -57 -4 -30 -2 -51 4 -55 16 -10 25 13 11 30 -19 23 -2 29 36
11 38 -18 50 -47 43 -99 -3 -18 1 -52 9 -75 14 -40 13 -45 -12 -102 -16 -34
-36 -63 -46 -66 -23 -8 -24 -14 -3 -43 14 -21 13 -25 -38 -82 -56 -64 -85 -81
-99 -59 -6 10 -9 6 -9 -12 0 -20 -7 -30 -30 -39 -51 -21 -56 -37 -13 -45 20
-4 54 -15 75 -26 50 -25 61 -24 154 15 43 18 94 37 111 40 36 8 46 18 61 64
17 49 57 93 71 79 6 -6 11 -22 11 -37 0 -20 2 -22 10 -10 5 8 10 32 10 52 0
20 9 90 20 155 20 117 20 118 1 134 -11 9 -42 19 -69 23 -27 3 -56 12 -64 19
-9 6 -40 57 -68 112 -47 90 -52 96 -46 58 4 -30 3 -43 -5 -43 -12 0 -67 48
-183 159 l-58 56 6 62 c6 56 4 64 -16 83 -12 11 -43 27 -68 34 -39 11 -45 17
-52 47 -4 23 -22 47 -55 76 -26 24 -50 43 -53 42 -3 0 -17 -10 -32 -23z"/>
<path d="M6660 2204 c-16 -19 -23 -71 -12 -90 14 -25 55 41 47 77 -7 33 -17
36 -35 13z"/>
<path d="M5178 2183 c7 -3 16 -2 19 1 4 3 -2 6 -13 5 -11 0 -14 -3 -6 -6z"/>
<path d="M5599 2139 c-36 -36 -1 -113 49 -107 48 6 55 65 12 108 -25 25 -35
25 -61 -1z"/>
<path d="M2235 2107 c-4 -10 -5 -21 -1 -24 10 -10 18 4 13 24 -4 17 -4 17 -12
0z"/>
<path d="M5114 2071 c-5 -5 -20 -11 -34 -14 -21 -4 -20 -4 7 -6 17 0 35 4 38
10 9 14 1 21 -11 10z"/>
<path d="M2220 2045 c0 -8 -3 -15 -8 -15 -4 0 -13 -13 -20 -29 -18 -41 5 -83
49 -88 18 -2 36 -8 40 -14 4 -7 12 -5 23 6 24 24 20 32 -18 39 -49 9 -62 29
-48 70 15 42 15 46 -3 46 -8 0 -15 -7 -15 -15z"/>
<path d="M4816 2003 c-26 -26 29 -117 68 -111 17 2 20 9 18 32 -5 47 -28 81
-55 84 -13 1 -27 -1 -31 -5z"/>
<path d="M5116 1977 c-12 -9 -17 -23 -14 -47 3 -30 7 -35 28 -35 27 0 37 26
26 71 -7 27 -15 29 -40 11z m29 -18 c4 -5 4 -21 1 -34 -9 -34 -36 -21 -36 16
0 29 22 40 35 18z"/>
<path d="M4504 1937 c-10 -41 0 -99 19 -111 41 -26 72 43 47 105 -16 37 -57
41 -66 6z"/>
<path d="M5036 1944 c-3 -9 -6 -26 -6 -39 0 -26 25 -52 35 -35 3 5 -1 10 -9
10 -21 0 -21 49 -1 56 19 8 20 24 1 24 -8 0 -17 -7 -20 -16z"/>
<path d="M6600 1927 c0 -15 4 -27 9 -27 17 0 19 15 5 35 -13 18 -14 18 -14 -8z"/>
<path d="M1800 1931 c0 -6 4 -13 10 -16 6 -3 7 1 4 9 -7 18 -14 21 -14 7z"/>
<path d="M2656 1911 c-7 -11 -53 -20 -149 -30 -43 -5 -81 -12 -85 -16 -4 -4 5
-17 20 -30 32 -27 119 -42 158 -27 34 13 90 66 90 85 0 17 -27 31 -34 18z
m-101 -74 c27 -21 4 -28 -40 -13 -23 8 -32 16 -24 19 24 9 45 7 64 -6z"/>
<path d="M6701 1904 c0 -11 3 -14 6 -6 3 7 2 16 -1 19 -3 4 -6 -2 -5 -13z"/>
<path d="M6567 1749 c-70 -69 -141 -146 -159 -170 -42 -59 -44 -60 -113 -57
-54 3 -70 10 -150 62 -82 53 -155 114 -208 174 -11 12 -25 22 -29 22 -10 0 48
-76 92 -121 14 -15 43 -49 65 -77 22 -28 55 -59 73 -69 22 -12 30 -23 26 -33
-21 -52 -45 -127 -68 -210 -48 -179 -55 -197 -55 -167 -1 15 -3 27 -6 27 -3 0
-21 -15 -40 -34 -18 -19 -59 -51 -89 -71 -64 -42 -75 -55 -48 -55 25 0 63 -56
152 -225 154 -291 203 -402 225 -515 19 -95 19 -95 77 -149 32 -29 58 -59 58
-67 0 -11 32 -14 175 -14 96 0 175 4 175 8 0 4 -12 46 -27 93 -36 109 -101
222 -184 318 -78 91 -164 207 -205 276 -23 39 -30 46 -32 30 -5 -24 -21 -45
-34 -45 -7 0 -7 4 -1 13 6 6 13 34 17 61 5 41 2 56 -19 92 -14 23 -25 50 -25
60 0 10 -3 14 -7 11 -4 -4 -18 4 -33 18 l-26 25 -24 -26 c-34 -36 -33 -124 3
-180 30 -48 45 -61 77 -67 22 -4 21 -4 -6 -6 -39 -1 -80 38 -105 100 -31 76
-23 132 25 184 30 32 33 45 10 45 -12 0 -14 7 -9 33 4 17 9 34 11 36 2 2 30
-12 61 -31 32 -20 76 -44 98 -55 51 -25 175 -95 340 -193 72 -43 140 -81 153
-85 l22 -6 0 396 c0 236 -4 425 -11 468 -11 75 -55 223 -71 244 -5 6 -12 22
-16 35 -6 21 -17 13 -135 -103z"/>
<path d="M5725 1830 c-3 -5 -1 -10 4 -10 6 0 11 5 11 10 0 6 -2 10 -4 10 -3 0
-8 -4 -11 -10z"/>
<path d="M6270 1812 c0 -4 10 -14 23 -22 31 -20 98 -20 121 1 17 17 16 18 -25
22 -68 7 -119 6 -119 -1z"/>
<path d="M3230 1773 c0 -17 5 -35 10 -38 13 -8 13 35 0 55 -7 11 -10 7 -10
-17z"/>
<path d="M1881 1764 c0 -11 3 -14 6 -6 3 7 2 16 -1 19 -3 4 -6 -2 -5 -13z"/>
<path d="M1900 1720 c0 -5 5 -10 11 -10 5 0 7 5 4 10 -3 6 -8 10 -11 10 -2 0
-4 -4 -4 -10z"/>
<path d="M4720 1716 c-32 -12 -36 -18 -31 -45 0 -5 14 3 30 18 19 18 42 28 67
29 21 2 40 5 43 7 10 10 -76 3 -109 -9z"/>
<path d="M5253 1694 c-8 -4 -1 -21 20 -50 17 -25 33 -40 35 -35 2 6 -6 24 -18
41 -12 16 -18 34 -15 40 6 10 -2 12 -22 4z"/>
<path d="M3240 1666 c0 -15 -5 -37 -11 -49 -11 -21 -10 -21 15 2 30 28 33 43
11 61 -13 11 -15 8 -15 -14z"/>
<path d="M1910 1673 c0 -5 7 -18 15 -29 15 -18 15 -18 13 5 -3 23 -28 44 -28
24z"/>
<path d="M2880 1611 c0 -6 5 -13 10 -16 6 -3 10 1 10 9 0 9 -4 16 -10 16 -5 0
-10 -4 -10 -9z"/>
<path d="M2190 1565 c-7 -8 -20 -15 -29 -16 -9 0 -11 -3 -4 -5 6 -3 29 4 50
15 29 16 33 20 17 21 -12 0 -27 -7 -34 -15z"/>
<path d="M1930 1543 c0 -22 2 -25 10 -13 13 20 13 40 0 40 -5 0 -10 -12 -10
-27z"/>
<path d="M5330 1523 c0 -17 5 -35 11 -38 19 -13 22 4 6 37 l-17 33 0 -32z"/>
<path d="M4341 1454 c0 -11 3 -14 6 -6 3 7 2 16 -1 19 -3 4 -6 -2 -5 -13z"/>
<path d="M2803 1418 c1 -27 -1 -48 -5 -48 -5 0 -8 -7 -8 -15 0 -8 7 -15 15
-15 17 0 18 25 5 85 l-9 40 2 -47z"/>
<path d="M5352 1390 c0 -19 2 -27 5 -17 2 9 2 25 0 35 -3 9 -5 1 -5 -18z"/>
<path d="M5002 1380 c0 -14 2 -19 5 -12 2 6 2 18 0 25 -3 6 -5 1 -5 -13z"/>
<path d="M2813 1308 c-13 -6 -23 -15 -23 -20 0 -4 -7 -8 -15 -8 -9 0 -18 -7
-21 -15 -8 -21 -32 -19 -37 3 -4 13 -5 12 -6 -5 0 -12 3 -23 9 -25 6 -2 6 -17
-1 -42 -7 -24 -7 -41 -1 -45 5 -3 12 -22 16 -42 l6 -37 -55 -7 c-30 -3 -55
-11 -55 -16 0 -14 -26 -39 -39 -39 -6 0 -11 -4 -11 -10 0 -17 28 -11 66 15 21
14 51 25 70 25 28 0 33 -4 36 -27 l4 -28 11 26 c11 25 0 109 -22 181 -5 13 8
33 51 73 56 55 60 64 17 43z"/>
<path d="M2466 1242 c-2 -4 -1 -14 4 -22 10 -17 -5 -40 -26 -40 -8 0 -14 -4
-14 -10 0 -5 6 -10 13 -10 23 1 47 27 47 53 0 26 -14 44 -24 29z"/>
<path d="M1910 1216 c0 -9 5 -16 10 -16 6 0 10 4 10 9 0 6 -4 13 -10 16 -5 3
-10 -1 -10 -9z"/>
<path d="M2670 1180 c0 -11 5 -20 10 -20 6 0 10 9 10 20 0 11 -4 20 -10 20 -5
0 -10 -9 -10 -20z"/>
<path d="M5543 1193 c-15 -5 -17 -23 -4 -23 5 0 11 7 15 15 3 8 4 15 3 14 -1
0 -8 -3 -14 -6z"/>
<path d="M5565 1160 c3 -5 10 -10 16 -10 5 0 9 5 9 10 0 6 -7 10 -16 10 -8 0
-12 -4 -9 -10z"/>
<path d="M2685 1109 c-10 -15 1 -23 20 -15 9 3 13 10 10 16 -8 13 -22 13 -30
-1z"/>
<path d="M2320 1085 c-10 -12 -11 -27 -2 -68 6 -29 14 -77 16 -107 3 -30 21
-110 40 -178 40 -140 56 -219 56 -274 0 -21 4 -38 9 -38 6 0 36 22 68 48 53
44 60 55 76 114 22 85 24 286 3 294 -8 3 -38 1 -67 -4 -46 -9 -60 -7 -96 10
-63 29 -73 49 -73 140 0 78 -6 91 -30 63z"/>
<path d="M5422 1092 c-7 -5 -9 -21 -5 -45 6 -39 14 -45 30 -24 13 17 -9 78
-25 69z"/>
<path d="M2565 1040 c-3 -5 3 -10 15 -10 12 0 18 5 15 10 -3 6 -10 10 -15 10
-5 0 -12 -4 -15 -10z"/>
<path d="M1967 1023 c-4 -3 -7 -11 -7 -17 0 -6 5 -5 12 2 6 6 9 14 7 17 -3 3
-9 2 -12 -2z"/>
<path d="M2370 1013 c0 -14 19 -38 25 -32 8 8 -5 39 -16 39 -5 0 -9 -3 -9 -7z"/>
<path d="M5281 994 c-19 -8 -31 -17 -28 -20 10 -11 54 5 61 21 3 8 4 15 3 15
-1 -1 -17 -7 -36 -16z"/>
<path d="M2638 963 c7 -3 16 -2 19 1 4 3 -2 6 -13 5 -11 0 -14 -3 -6 -6z"/>
<path d="M4500 926 c0 -8 -11 -23 -24 -33 -32 -25 -41 -75 -17 -104 l18 -22 7
49 c3 27 13 62 21 78 18 33 19 46 5 46 -5 0 -10 -6 -10 -14z"/>
<path d="M2454 917 c3 -10 6 -23 6 -28 0 -5 5 -9 10 -9 14 0 12 13 -6 36 -14
17 -15 17 -10 1z"/>
<path d="M1922 875 c-38 -40 -31 -46 12 -12 16 13 27 29 25 35 -3 8 -18 -2
-37 -23z"/>
<path d="M2065 880 c3 -5 10 -10 16 -10 5 0 9 5 9 10 0 6 -7 10 -16 10 -8 0
-12 -4 -9 -10z"/>
<path d="M5076 871 c-4 -7 -5 -15 -2 -18 9 -9 19 4 14 18 -4 11 -6 11 -12 0z"/>
<path d="M1850 831 c0 -25 6 -27 13 -6 4 8 2 17 -3 20 -6 4 -10 -3 -10 -14z"/>
<path d="M5516 841 c-18 -7 -18 -8 -2 -14 9 -4 15 -11 12 -16 -3 -5 3 -7 14
-4 15 4 20 0 20 -16 0 -12 6 -21 15 -21 21 0 19 16 -5 40 -12 12 -18 25 -15
30 7 12 -12 12 -39 1z"/>
<path d="M3550 831 c0 -5 9 -13 20 -16 19 -6 20 -15 20 -132 0 -116 -1 -125
-20 -130 -11 -3 -20 -11 -20 -18 0 -14 101 -25 148 -17 29 5 31 42 2 42 -17 0
-20 7 -20 45 0 54 18 53 46 -3 31 -59 62 -81 117 -82 51 0 62 16 27 37 -11 7
-27 27 -36 45 -9 18 -24 38 -33 45 -14 11 -13 15 14 37 24 19 30 31 30 66 0
34 -6 47 -28 66 -26 22 -36 24 -148 24 -67 0 -119 -4 -119 -9z m181 -31 c14
-8 19 -21 19 -51 0 -33 -4 -41 -26 -49 -36 -14 -44 -6 -44 49 0 62 10 72 51
51z"/>
<path d="M5026 823 c-9 -9 -7 -33 3 -33 12 0 22 28 12 34 -5 3 -11 3 -15 -1z"/>
<path d="M5482 798 c-1 -16 -11 -37 -22 -48 -20 -20 -26 -40 -12 -40 21 0 43
43 39 78 -3 28 -4 30 -5 10z"/>
<path d="M5380 796 c0 -8 -8 -21 -18 -28 -35 -25 -35 -38 0 -37 18 0 27 3 21
6 -18 7 -16 23 2 23 17 0 21 35 5 45 -5 3 -10 -1 -10 -9z"/>
<path d="M5092 768 c-7 -7 -12 -16 -12 -21 0 -5 7 -1 16 8 9 9 14 18 12 20 -2
3 -10 -1 -16 -7z"/>
<path d="M5522 747 c-7 -16 -12 -45 -12 -66 0 -24 -9 -49 -25 -71 -29 -39 -31
-50 -10 -50 8 0 15 9 15 19 0 11 4 22 8 25 13 8 44 131 39 153 -3 15 -6 13
-15 -10z"/>
<path d="M2942 715 c0 -16 2 -22 5 -12 2 9 2 23 0 30 -3 6 -5 -1 -5 -18z"/>
<path d="M4480 713 c0 -10 5 -25 10 -33 7 -11 10 -7 10 18 0 17 -4 32 -10 32
-5 0 -10 -8 -10 -17z"/>
<path d="M5011 697 c-13 -17 -6 -43 15 -51 16 -6 20 30 5 52 -6 10 -10 10 -20
-1z"/>
<path d="M5331 634 c0 -11 3 -14 6 -6 3 7 2 16 -1 19 -3 4 -6 -2 -5 -13z"/>
<path d="M2970 629 c0 -5 5 -7 10 -4 6 3 10 8 10 11 0 2 -4 4 -10 4 -5 0 -10
-5 -10 -11z"/>
<path d="M5070 616 c0 -8 5 -18 10 -21 6 -3 10 1 10 9 0 8 -4 18 -10 21 -5 3
-10 -1 -10 -9z"/>
<path d="M2231 565 l1 -50 8 40 c5 22 4 44 -1 50 -5 5 -9 -11 -8 -40z"/>
<path d="M5016 595 c4 -8 8 -15 10 -15 2 0 4 7 4 15 0 8 -4 15 -10 15 -5 0 -7
-7 -4 -15z"/>
<path d="M5047 594 c-4 -4 -7 -14 -7 -23 0 -11 3 -12 11 -4 6 6 10 16 7 23 -2
6 -7 8 -11 4z"/>
<path d="M3107 563 c-16 -15 -5 -51 28 -92 19 -24 35 -47 35 -50 0 -12 74 -86
132 -133 65 -51 185 -113 243 -124 20 -3 43 -13 50 -21 8 -8 15 -10 15 -4 0 6
28 10 73 9 132 -2 157 1 157 17 0 18 17 20 22 3 9 -25 143 20 225 74 23 16 45
28 50 28 5 0 38 29 73 65 62 62 63 65 45 80 -30 22 -43 19 -95 -27 -62 -56
-144 -104 -228 -136 -55 -20 -86 -25 -172 -26 -58 0 -131 2 -163 7 -47 6 -59
4 -63 -8 -3 -8 -11 -12 -16 -9 -6 4 -5 10 3 15 11 7 9 13 -11 29 -14 11 -32
20 -40 20 -49 0 -216 144 -276 238 -25 38 -40 52 -57 52 -13 0 -27 -3 -30 -7z"/>
<path d="M5286 561 c-8 -12 3 -41 15 -41 5 0 9 11 9 25 0 25 -14 34 -24 16z"/>
<path d="M4542 540 c0 -14 2 -19 5 -12 2 6 2 18 0 25 -3 6 -5 1 -5 -13z"/>
<path d="M5152 525 c0 -16 2 -22 5 -12 2 9 2 23 0 30 -3 6 -5 -1 -5 -18z"/>
<path d="M5040 501 c0 -12 9 -20 25 -23 17 -4 25 -1 25 8 0 8 -6 11 -15 8 -9
-4 -15 0 -15 10 0 9 -4 16 -10 16 -5 0 -10 -8 -10 -19z"/>
<path d="M5280 497 c0 -14 34 -69 37 -61 5 16 -15 64 -27 64 -5 0 -10 -2 -10
-3z"/>
<path d="M5226 477 c3 -10 9 -15 12 -12 3 3 0 11 -7 18 -10 9 -11 8 -5 -6z"/>
<path d="M1901 393 c0 -12 5 -37 13 -55 8 -18 20 -48 27 -66 6 -18 14 -31 16
-28 5 5 -25 94 -38 111 -4 6 -9 21 -12 35 -4 23 -4 23 -6 3z"/>
<path d="M2395 401 c-6 -11 9 -23 19 -14 9 9 7 23 -3 23 -6 0 -12 -4 -16 -9z"/>
<path d="M4572 370 c0 -19 2 -27 5 -17 2 9 2 25 0 35 -3 9 -5 1 -5 -18z"/>
<path d="M5351 323 c-1 -24 4 -43 9 -43 12 0 12 37 0 65 -7 15 -9 10 -9 -22z"/>
<path d="M2033 295 c0 -27 2 -38 4 -22 2 15 2 37 0 50 -2 12 -4 0 -4 -28z"/>
<path d="M5708 306 c-32 -7 -61 -15 -64 -19 -4 -4 38 -7 94 -7 71 0 102 -4
105 -12 3 -7 6 2 6 20 1 31 0 32 -41 31 -24 0 -69 -6 -100 -13z"/>
<path d="M6703 293 c-23 -15 -32 -43 -14 -43 9 0 45 50 39 55 -2 1 -13 -4 -25
-12z"/>
<path d="M5510 283 c0 -5 16 -47 36 -92 20 -46 38 -107 41 -137 l6 -54 180 0
c156 0 178 2 167 15 -29 35 -50 92 -50 137 0 47 -12 65 -41 60 -16 -3 -291 59
-321 73 -10 4 -18 3 -18 -2z"/>
<path d="M1971 194 c15 -57 20 -64 14 -20 -2 22 -9 44 -14 49 -7 7 -7 -3 0
-29z"/>
<path d="M2007 143 c-11 -10 -8 -71 3 -78 6 -4 10 12 10 39 0 47 -2 51 -13 39z"/>
<path d="M3602 100 c0 -14 2 -19 5 -12 2 6 2 18 0 25 -3 6 -5 1 -5 -13z"/>
<path d="M3582 20 c0 -14 2 -19 5 -12 2 6 2 18 0 25 -3 6 -5 1 -5 -13z"/>
</g>
</svg>
